<svg width="470" height="482" viewBox="0 0 470 482" fill="none" xmlns="http://www.w3.org/2000/svg">
<g filter="url(#filter0_d_403_485)">
<rect x="100" y="80" width="270" height="282" fill="white"/>
</g>
<g clip-path="url(#clip0_403_485)">
<g opacity="0.3">
<path d="M230.5 277C184.456 277 147 239.544 147 193.5C147 147.456 184.456 110 230.5 110C276.544 110 314 147.456 314 193.5C314 239.544 276.544 277 230.5 277ZM230.5 119.801C189.89 119.801 156.801 152.842 156.801 193.5C156.801 234.11 189.842 267.199 230.5 267.199C271.11 267.199 304.199 234.158 304.199 193.5C304.199 152.89 271.11 119.801 230.5 119.801Z" fill="#C4C4C4"/>
</g>
<path d="M230.5 277C184.456 277 147 239.544 147 193.5C147 147.456 184.456 110 230.5 110C233.217 110 235.4 112.183 235.4 114.9C235.4 117.617 233.217 119.801 230.5 119.801C189.89 119.801 156.801 152.842 156.801 193.5C156.801 234.11 189.842 267.199 230.5 267.199C271.11 267.199 304.199 234.158 304.199 193.5C304.199 190.783 306.383 188.6 309.1 188.6C311.817 188.6 314 190.783 314 193.5C314 239.544 276.544 277 230.5 277Z" fill="#E5745D"/>
</g>
<path d="M202.964 207.984C202.669 207.893 202.42 207.701 202.216 207.406C202.035 207.134 201.944 206.703 201.944 206.114C201.944 204.573 202.261 202.929 202.896 201.184C203.531 199.416 204.415 197.512 205.548 195.472C206.681 193.409 207.962 191.199 209.39 188.842H204.97C204.267 188.842 203.701 188.91 203.27 189.046C202.862 189.159 202.522 189.386 202.25 189.726C202.001 190.066 201.785 190.587 201.604 191.29C201.128 191.313 200.697 191.29 200.312 191.222C199.949 191.131 199.621 191.007 199.326 190.848C199.462 190.259 199.575 189.647 199.666 189.012C199.757 188.377 199.825 187.72 199.87 187.04C199.915 186.337 199.938 185.623 199.938 184.898C200.799 184.943 201.695 184.977 202.624 185C203.553 185 204.721 185 206.126 185C206.919 185 207.656 185 208.336 185C209.016 185 209.696 184.989 210.376 184.966C211.056 184.943 211.781 184.921 212.552 184.898C212.733 185.125 212.869 185.397 212.96 185.714C213.073 186.031 213.13 186.349 213.13 186.666C212.563 187.505 211.997 188.377 211.43 189.284C210.886 190.191 210.365 191.086 209.866 191.97C209.39 192.854 208.982 193.647 208.642 194.35C208.211 195.257 207.849 196.118 207.554 196.934C207.282 197.75 207.067 198.589 206.908 199.45C206.749 200.289 206.636 201.229 206.568 202.272C206.5 203.337 206.466 204.561 206.466 205.944C205.763 206.193 205.106 206.499 204.494 206.862C203.882 207.225 203.372 207.599 202.964 207.984ZM222.729 186.802C221.823 186.802 221.052 187.074 220.417 187.618C219.805 188.139 219.329 188.842 218.989 189.726C218.672 190.61 218.513 191.596 218.513 192.684C218.513 193.5 218.638 194.35 218.887 195.234C219.159 196.095 219.545 196.9 220.043 197.648C220.565 198.373 221.177 198.963 221.879 199.416C222.605 199.869 223.421 200.096 224.327 200.096C225.279 200.096 226.05 199.824 226.639 199.28C227.229 198.736 227.659 198.011 227.931 197.104C228.203 196.197 228.339 195.223 228.339 194.18C228.339 193.409 228.215 192.605 227.965 191.766C227.739 190.905 227.376 190.1 226.877 189.352C226.401 188.581 225.812 187.969 225.109 187.516C224.429 187.04 223.636 186.802 222.729 186.802ZM223.613 184.796C225.223 184.796 226.707 185.125 228.067 185.782C229.45 186.439 230.549 187.403 231.365 188.672C232.181 189.941 232.589 191.494 232.589 193.33C232.589 195.166 232.181 196.764 231.365 198.124C230.549 199.461 229.461 200.493 228.101 201.218C226.741 201.943 225.245 202.306 223.613 202.306C221.936 202.306 220.395 201.943 218.989 201.218C217.584 200.493 216.462 199.461 215.623 198.124C214.785 196.764 214.365 195.166 214.365 193.33C214.365 191.947 214.615 190.723 215.113 189.658C215.635 188.593 216.337 187.697 217.221 186.972C218.105 186.247 219.091 185.703 220.179 185.34C221.29 184.977 222.435 184.796 223.613 184.796ZM240.081 202.238C239.673 202.125 239.322 201.955 239.027 201.728C238.733 201.479 238.529 201.229 238.415 200.98L257.115 178.676C257.478 178.721 257.818 178.835 258.135 179.016C258.453 179.175 258.725 179.39 258.951 179.662L240.081 202.238ZM242.223 189.794C241.022 189.794 240.025 189.545 239.231 189.046C238.461 188.525 237.871 187.867 237.463 187.074C237.055 186.281 236.851 185.453 236.851 184.592C236.851 183.617 237.067 182.711 237.497 181.872C237.928 181.011 238.563 180.319 239.401 179.798C240.24 179.254 241.294 178.982 242.563 178.982C243.697 178.982 244.637 179.243 245.385 179.764C246.133 180.263 246.689 180.909 247.051 181.702C247.437 182.495 247.629 183.3 247.629 184.116C247.629 185.136 247.414 186.077 246.983 186.938C246.575 187.799 245.975 188.491 245.181 189.012C244.388 189.533 243.402 189.794 242.223 189.794ZM242.461 187.992C242.96 187.992 243.436 187.709 243.889 187.142C244.365 186.553 244.603 185.691 244.603 184.558C244.603 183.447 244.365 182.541 243.889 181.838C243.436 181.113 242.847 180.75 242.121 180.75C241.532 180.75 241.011 181.079 240.557 181.736C240.127 182.371 239.911 183.175 239.911 184.15C239.911 185.283 240.138 186.213 240.591 186.938C241.067 187.641 241.691 187.992 242.461 187.992ZM254.803 202.272C253.602 202.272 252.605 202.023 251.811 201.524C251.041 201.003 250.451 200.345 250.043 199.552C249.635 198.759 249.431 197.931 249.431 197.07C249.431 196.095 249.647 195.189 250.077 194.35C250.508 193.489 251.143 192.797 251.981 192.276C252.843 191.732 253.897 191.46 255.143 191.46C256.277 191.46 257.206 191.721 257.931 192.242C258.679 192.741 259.246 193.387 259.631 194.18C260.017 194.973 260.209 195.778 260.209 196.594C260.209 197.614 259.994 198.555 259.563 199.416C259.155 200.277 258.555 200.969 257.761 201.49C256.968 202.011 255.982 202.272 254.803 202.272ZM255.041 200.47C255.54 200.47 256.016 200.187 256.469 199.62C256.945 199.031 257.183 198.169 257.183 197.036C257.183 195.925 256.945 195.019 256.469 194.316C256.016 193.591 255.427 193.228 254.701 193.228C254.112 193.228 253.591 193.557 253.137 194.214C252.707 194.849 252.491 195.653 252.491 196.628C252.491 197.761 252.718 198.691 253.171 199.416C253.647 200.119 254.271 200.47 255.041 200.47Z" fill="#E5745D"/>
<path d="M152.672 326.234C150.904 326.234 149.361 325.861 148.044 325.116C146.727 324.371 145.704 323.313 144.976 321.944C144.265 320.557 143.91 318.911 143.91 317.004C143.91 315.565 144.144 314.3 144.612 313.208C145.097 312.099 145.756 311.18 146.588 310.452C147.437 309.707 148.408 309.143 149.5 308.762C150.609 308.381 151.788 308.19 153.036 308.19C154.249 308.19 155.393 308.311 156.468 308.554C157.543 308.797 158.461 309.1 159.224 309.464C159.103 310.053 159.025 310.686 158.99 311.362C158.955 312.038 158.938 312.749 158.938 313.494C158.678 313.598 158.392 313.667 158.08 313.702C157.785 313.737 157.482 313.754 157.17 313.754C157.135 312.645 156.936 311.787 156.572 311.18C156.208 310.573 155.731 310.157 155.142 309.932C154.553 309.689 153.877 309.568 153.114 309.568C151.814 309.568 150.748 309.897 149.916 310.556C149.084 311.197 148.469 312.038 148.07 313.078C147.689 314.118 147.498 315.236 147.498 316.432C147.498 317.975 147.706 319.37 148.122 320.618C148.555 321.866 149.188 322.863 150.02 323.608C150.869 324.336 151.909 324.7 153.14 324.7C153.573 324.7 153.946 324.683 154.258 324.648C154.57 324.596 154.891 324.509 155.22 324.388C155.497 324.267 155.705 324.085 155.844 323.842C156 323.582 156.078 323.123 156.078 322.464V321.294C156.078 320.583 156.026 320.063 155.922 319.734C155.835 319.405 155.636 319.188 155.324 319.084C155.029 318.98 154.579 318.919 153.972 318.902C153.903 318.711 153.851 318.495 153.816 318.252C153.799 317.992 153.79 317.723 153.79 317.446C154.189 317.463 154.7 317.481 155.324 317.498C155.965 317.515 156.563 317.524 157.118 317.524C157.655 317.524 158.245 317.524 158.886 317.524C159.527 317.507 160.03 317.489 160.394 317.472C160.394 317.68 160.385 317.914 160.368 318.174C160.351 318.434 160.307 318.677 160.238 318.902C159.909 318.919 159.657 318.98 159.484 319.084C159.328 319.188 159.215 319.396 159.146 319.708C159.094 320.02 159.068 320.505 159.068 321.164V322.152C159.068 322.62 159.094 323.01 159.146 323.322C159.198 323.634 159.302 323.946 159.458 324.258C158.695 324.813 157.725 325.281 156.546 325.662C155.385 326.043 154.093 326.234 152.672 326.234ZM167.77 321.762C167.77 322.507 167.848 323.088 168.004 323.504C168.16 323.903 168.42 324.189 168.784 324.362C169.166 324.518 169.651 324.622 170.24 324.674C170.31 324.847 170.353 325.055 170.37 325.298C170.388 325.541 170.396 325.801 170.396 326.078C170.119 326.061 169.772 326.043 169.356 326.026C168.958 326.026 168.524 326.017 168.056 326C167.606 326 167.146 326 166.678 326C165.968 326 165.222 326 164.442 326C163.68 326.017 163.082 326.043 162.648 326.078C162.648 325.766 162.657 325.497 162.674 325.272C162.709 325.047 162.752 324.847 162.804 324.674C163.272 324.639 163.636 324.553 163.896 324.414C164.156 324.275 164.33 324.033 164.416 323.686C164.52 323.339 164.572 322.845 164.572 322.204V320.098H167.77V321.762ZM167.77 318.356V320.514H164.572V317.654L167.77 315.158C167.77 315.661 167.718 316.137 167.614 316.588C167.51 317.039 167.406 317.541 167.302 318.096L167.77 318.356ZM167.198 318.226C167.354 317.793 167.493 317.394 167.614 317.03C167.753 316.666 167.883 316.38 168.004 316.172C168.386 315.565 168.845 315.063 169.382 314.664C169.92 314.265 170.526 314.066 171.202 314.066C171.878 314.066 172.494 314.274 173.048 314.69C172.996 315.002 172.953 315.366 172.918 315.782C172.884 316.198 172.858 316.614 172.84 317.03C172.823 317.446 172.823 317.827 172.84 318.174C172.632 318.261 172.346 318.33 171.982 318.382C171.618 318.434 171.272 318.46 170.942 318.46C170.925 317.715 170.812 317.212 170.604 316.952C170.396 316.692 170.119 316.562 169.772 316.562C169.495 316.562 169.2 316.718 168.888 317.03C168.576 317.342 168.308 317.758 168.082 318.278C167.874 318.781 167.77 319.344 167.77 319.968L167.198 318.226ZM164.572 320.514V318.018C164.572 317.55 164.529 317.177 164.442 316.9C164.373 316.623 164.2 316.415 163.922 316.276C163.662 316.137 163.246 316.051 162.674 316.016C162.674 315.773 162.692 315.548 162.726 315.34C162.761 315.115 162.83 314.915 162.934 314.742C163.714 314.707 164.494 314.603 165.274 314.43C166.072 314.257 166.678 314.066 167.094 313.858C167.285 313.927 167.441 314.066 167.562 314.274C167.701 314.465 167.77 314.759 167.77 315.158L164.572 320.514ZM182.776 326.234C182.516 326.13 182.325 325.965 182.204 325.74C182.082 325.497 182.022 325.159 182.022 324.726C182.022 324.535 182.039 324.31 182.074 324.05C182.108 323.79 182.16 323.547 182.23 323.322L182.308 323.27C182.204 323.651 182.048 324.024 181.84 324.388C181.632 324.735 181.38 325.029 181.086 325.272C180.756 325.549 180.349 325.775 179.864 325.948C179.378 326.104 178.815 326.182 178.174 326.182C177.03 326.182 176.146 325.931 175.522 325.428C174.915 324.925 174.612 324.223 174.612 323.322C174.612 322.663 174.768 322.1 175.08 321.632C175.392 321.147 175.808 320.739 176.328 320.41C176.848 320.081 177.411 319.821 178.018 319.63C178.642 319.422 179.266 319.266 179.89 319.162C180.531 319.041 181.12 318.937 181.658 318.85C181.658 318.261 181.64 317.793 181.606 317.446C181.588 317.082 181.536 316.787 181.45 316.562C181.38 316.319 181.259 316.111 181.086 315.938C180.895 315.695 180.67 315.522 180.41 315.418C180.15 315.297 179.872 315.236 179.578 315.236C179.058 315.236 178.642 315.392 178.33 315.704C178.035 316.016 177.818 316.406 177.68 316.874C177.541 317.325 177.454 317.758 177.42 318.174C177.09 318.174 176.761 318.165 176.432 318.148C176.102 318.113 175.825 318.053 175.6 317.966C175.634 317.498 175.643 316.995 175.626 316.458C175.608 315.921 175.548 315.418 175.444 314.95C176.172 314.603 176.978 314.335 177.862 314.144C178.746 313.953 179.569 313.858 180.332 313.858C181.198 313.858 181.9 313.962 182.438 314.17C182.992 314.378 183.417 314.638 183.712 314.95C184.11 315.349 184.396 315.886 184.57 316.562C184.743 317.221 184.83 318.148 184.83 319.344V321.84C184.83 322.36 184.864 322.776 184.934 323.088C185.02 323.383 185.168 323.591 185.376 323.712C185.601 323.833 185.939 323.903 186.39 323.92C186.424 324.163 186.424 324.414 186.39 324.674C186.372 324.934 186.312 325.177 186.208 325.402C185.653 325.419 185.064 325.506 184.44 325.662C183.833 325.801 183.278 325.991 182.776 326.234ZM179.24 324.31C179.604 324.31 179.968 324.189 180.332 323.946C180.713 323.703 181.025 323.339 181.268 322.854C181.528 322.351 181.658 321.71 181.658 320.93V320.124C181.172 320.193 180.696 320.289 180.228 320.41C179.777 320.514 179.37 320.661 179.006 320.852C178.659 321.025 178.382 321.259 178.174 321.554C177.966 321.849 177.862 322.23 177.862 322.698C177.862 323.253 178 323.66 178.278 323.92C178.555 324.18 178.876 324.31 179.24 324.31ZM188.14 332.37C188.14 332.058 188.149 331.789 188.166 331.564C188.201 331.339 188.244 331.139 188.296 330.966C188.764 330.931 189.128 330.845 189.388 330.706C189.648 330.567 189.822 330.325 189.908 329.978C190.012 329.631 190.064 329.137 190.064 328.496V318.018C190.064 317.55 190.021 317.177 189.934 316.9C189.865 316.623 189.692 316.415 189.414 316.276C189.154 316.137 188.738 316.051 188.166 316.016C188.166 315.773 188.184 315.548 188.218 315.34C188.253 315.115 188.322 314.915 188.426 314.742C189.206 314.707 189.986 314.603 190.766 314.43C191.564 314.257 192.17 314.066 192.586 313.858C192.777 313.927 192.933 314.066 193.054 314.274C193.193 314.465 193.262 314.759 193.262 315.158C193.262 315.47 193.21 315.791 193.106 316.12C193.002 316.449 192.864 316.865 192.69 317.368L193.262 317.888V328.054C193.262 328.799 193.34 329.371 193.496 329.77C193.652 330.186 193.912 330.472 194.276 330.628C194.658 330.801 195.143 330.914 195.732 330.966C195.802 331.139 195.845 331.347 195.862 331.59C195.88 331.833 195.888 332.093 195.888 332.37C195.611 332.353 195.264 332.335 194.848 332.318C194.45 332.318 194.016 332.309 193.548 332.292C193.098 332.292 192.638 332.292 192.17 332.292C191.46 332.292 190.714 332.292 189.934 332.292C189.172 332.309 188.574 332.335 188.14 332.37ZM195.238 326.234C194.822 326.234 194.441 326.199 194.094 326.13C193.748 326.061 193.366 325.965 192.95 325.844V323.582C193.262 323.963 193.6 324.267 193.964 324.492C194.328 324.717 194.788 324.83 195.342 324.83C195.672 324.83 196.027 324.761 196.408 324.622C196.807 324.483 197.188 324.241 197.552 323.894C197.916 323.547 198.211 323.053 198.436 322.412C198.662 321.771 198.774 320.947 198.774 319.942C198.774 319.127 198.67 318.417 198.462 317.81C198.254 317.186 197.951 316.692 197.552 316.328C197.171 315.964 196.703 315.782 196.148 315.782C195.68 315.782 195.221 315.938 194.77 316.25C194.337 316.545 193.973 317.03 193.678 317.706C193.401 318.382 193.262 319.283 193.262 320.41L192.326 317.706C192.586 317.082 192.82 316.605 193.028 316.276C193.254 315.929 193.444 315.669 193.6 315.496C193.791 315.253 194.051 315.011 194.38 314.768C194.727 314.508 195.126 314.291 195.576 314.118C196.044 313.945 196.556 313.858 197.11 313.858C198.116 313.858 198.991 314.057 199.736 314.456C200.482 314.837 201.062 315.427 201.478 316.224C201.894 317.021 202.102 318.044 202.102 319.292C202.102 320.627 201.816 321.823 201.244 322.88C200.672 323.92 199.875 324.743 198.852 325.35C197.83 325.939 196.625 326.234 195.238 326.234ZM216.832 322.412C216.832 323.296 216.936 323.894 217.144 324.206C217.37 324.518 217.734 324.674 218.236 324.674C218.306 324.865 218.349 325.073 218.366 325.298C218.401 325.506 218.418 325.766 218.418 326.078C218.037 326.043 217.56 326.017 216.988 326C216.434 326 215.879 326 215.324 326C214.96 326 214.553 326 214.102 326C213.669 326.017 213.253 326.026 212.854 326.026C212.473 326.043 212.144 326.061 211.866 326.078C211.866 325.801 211.875 325.549 211.892 325.324C211.91 325.081 211.953 324.865 212.022 324.674C212.577 324.674 212.984 324.509 213.244 324.18C213.522 323.833 213.66 323.209 213.66 322.308V319.058C213.66 317.897 213.461 317.108 213.062 316.692C212.681 316.259 212.161 316.042 211.502 316.042C211.052 316.042 210.618 316.198 210.202 316.51C209.804 316.805 209.466 317.264 209.188 317.888C208.928 318.512 208.798 319.309 208.798 320.28V322.412C208.798 323.279 208.92 323.877 209.162 324.206C209.405 324.518 209.821 324.674 210.41 324.674C210.497 324.882 210.549 325.099 210.566 325.324C210.584 325.532 210.592 325.783 210.592 326.078C210.35 326.061 210.029 326.043 209.63 326.026C209.249 326.026 208.842 326.017 208.408 326C207.992 326 207.594 326 207.212 326C206.848 326 206.441 326 205.99 326C205.54 326.017 205.106 326.026 204.69 326.026C204.292 326.043 203.962 326.061 203.702 326.078C203.702 325.783 203.711 325.515 203.728 325.272C203.763 325.029 203.806 324.83 203.858 324.674C204.534 324.674 204.994 324.518 205.236 324.206C205.496 323.877 205.626 323.279 205.626 322.412V318.018L208.798 315.158C208.798 315.366 208.781 315.609 208.746 315.886C208.712 316.146 208.651 316.423 208.564 316.718C208.651 316.545 208.738 316.371 208.824 316.198C208.911 316.025 209.024 315.86 209.162 315.704C209.492 315.305 209.977 314.924 210.618 314.56C211.26 314.179 212.005 313.988 212.854 313.988C213.548 313.988 214.198 314.127 214.804 314.404C215.411 314.681 215.896 315.132 216.26 315.756C216.642 316.363 216.832 317.186 216.832 318.226V322.412ZM205.626 311.362C205.626 310.946 205.583 310.608 205.496 310.348C205.41 310.088 205.228 309.889 204.95 309.75C204.673 309.611 204.248 309.533 203.676 309.516C203.676 309.273 203.694 309.048 203.728 308.84C203.763 308.615 203.832 308.415 203.936 308.242C204.404 308.242 204.916 308.199 205.47 308.112C206.042 308.025 206.571 307.913 207.056 307.774C207.542 307.635 207.897 307.497 208.122 307.358C208.313 307.427 208.469 307.557 208.59 307.748C208.729 307.939 208.798 308.225 208.798 308.606V312.038H205.626V311.362ZM205.626 311.128H208.798V315.158L205.626 318.59V311.128ZM220.209 326.078C220.209 325.818 220.217 325.567 220.235 325.324C220.269 325.081 220.321 324.865 220.391 324.674C221.084 324.657 221.543 324.492 221.769 324.18C222.011 323.868 222.133 323.279 222.133 322.412V317.862C222.133 317.446 222.089 317.108 222.003 316.848C221.916 316.588 221.734 316.389 221.457 316.25C221.179 316.111 220.763 316.033 220.209 316.016C220.209 315.773 220.226 315.548 220.261 315.34C220.295 315.115 220.365 314.915 220.469 314.742C220.919 314.742 221.422 314.699 221.977 314.612C222.549 314.525 223.077 314.413 223.563 314.274C224.048 314.135 224.403 313.997 224.629 313.858C224.837 313.927 225.001 314.057 225.123 314.248C225.261 314.439 225.331 314.725 225.331 315.106V322.412C225.331 323.279 225.443 323.868 225.669 324.18C225.894 324.492 226.31 324.657 226.917 324.674C226.986 324.865 227.029 325.09 227.047 325.35C227.064 325.61 227.073 325.853 227.073 326.078C226.795 326.061 226.466 326.043 226.085 326.026C225.721 326.026 225.331 326.017 224.915 326C224.499 326 224.083 326 223.667 326C223.251 326 222.826 326 222.393 326C221.959 326.017 221.552 326.026 221.171 326.026C220.807 326.043 220.486 326.061 220.209 326.078ZM223.459 311.466C222.904 311.466 222.445 311.31 222.081 310.998C221.734 310.669 221.561 310.261 221.561 309.776C221.561 309.204 221.751 308.762 222.133 308.45C222.514 308.121 222.973 307.956 223.511 307.956C224.117 307.956 224.594 308.121 224.941 308.45C225.305 308.762 225.487 309.195 225.487 309.75C225.487 310.218 225.296 310.625 224.915 310.972C224.533 311.301 224.048 311.466 223.459 311.466ZM238.883 324.284C238.432 324.908 237.843 325.393 237.115 325.74C236.387 326.069 235.529 326.234 234.541 326.234C233.484 326.234 232.504 326.009 231.603 325.558C230.719 325.107 230.008 324.431 229.471 323.53C228.934 322.611 228.665 321.467 228.665 320.098C228.665 319.058 228.882 318.061 229.315 317.108C229.748 316.155 230.39 315.375 231.239 314.768C232.106 314.161 233.172 313.858 234.437 313.858C235.321 313.858 236.11 313.953 236.803 314.144C237.496 314.317 238.103 314.595 238.623 314.976C238.536 315.479 238.476 315.981 238.441 316.484C238.406 316.969 238.389 317.507 238.389 318.096C238.164 318.2 237.895 318.278 237.583 318.33C237.271 318.365 236.976 318.382 236.699 318.382C236.63 317.377 236.387 316.614 235.971 316.094C235.555 315.557 235.009 315.288 234.333 315.288C233.57 315.288 232.964 315.687 232.513 316.484C232.08 317.264 231.863 318.339 231.863 319.708C231.863 320.505 231.993 321.268 232.253 321.996C232.513 322.724 232.912 323.322 233.449 323.79C233.986 324.241 234.662 324.466 235.477 324.466C236.032 324.466 236.543 324.362 237.011 324.154C237.479 323.929 237.895 323.625 238.259 323.244C238.415 323.348 238.545 323.495 238.649 323.686C238.77 323.859 238.848 324.059 238.883 324.284ZM246.09 326.078C246.09 325.783 246.098 325.523 246.116 325.298C246.133 325.055 246.176 324.847 246.246 324.674C246.714 324.639 247.069 324.553 247.312 324.414C247.572 324.258 247.754 323.998 247.858 323.634C247.962 323.253 248.014 322.707 248.014 321.996V312.22C248.014 311.561 247.962 311.067 247.858 310.738C247.771 310.409 247.598 310.175 247.338 310.036C247.078 309.88 246.714 309.785 246.246 309.75C246.194 309.577 246.15 309.36 246.116 309.1C246.098 308.823 246.09 308.571 246.09 308.346C246.419 308.363 246.826 308.381 247.312 308.398C247.797 308.398 248.3 308.407 248.82 308.424C249.357 308.424 249.86 308.424 250.328 308.424C250.778 308.424 251.246 308.415 251.732 308.398C252.234 308.381 252.746 308.372 253.266 308.372C254.219 308.372 255.164 308.441 256.1 308.58C257.036 308.701 257.911 308.935 258.726 309.282C259.558 309.611 260.294 310.097 260.936 310.738C261.577 311.362 262.08 312.168 262.444 313.156C262.808 314.127 262.99 315.331 262.99 316.77C262.99 318.174 262.816 319.379 262.47 320.384C262.123 321.389 261.664 322.23 261.092 322.906C260.52 323.582 259.878 324.128 259.168 324.544C258.457 324.96 257.738 325.272 257.01 325.48C256.282 325.688 255.588 325.827 254.93 325.896C254.271 325.965 253.708 326 253.24 326C252.754 326 252.174 326 251.498 326C250.822 326 250.128 326 249.418 326C248.707 326.017 248.048 326.026 247.442 326.026C246.852 326.043 246.402 326.061 246.09 326.078ZM253.604 324.57C254.366 324.57 255.094 324.466 255.788 324.258C256.498 324.05 257.131 323.677 257.686 323.14C258.24 322.603 258.674 321.857 258.986 320.904C259.315 319.933 259.48 318.694 259.48 317.186C259.48 315.782 259.298 314.603 258.934 313.65C258.57 312.679 258.084 311.908 257.478 311.336C256.871 310.747 256.178 310.322 255.398 310.062C254.618 309.802 253.812 309.672 252.98 309.672C252.633 309.672 252.26 309.707 251.862 309.776C251.48 309.845 251.22 309.932 251.082 310.036L251.342 309.204V321.97C251.342 322.663 251.402 323.201 251.524 323.582C251.645 323.946 251.87 324.206 252.2 324.362C252.529 324.501 252.997 324.57 253.604 324.57ZM270.826 326.234C269.457 326.234 268.33 325.965 267.446 325.428C266.579 324.873 265.929 324.128 265.496 323.192C265.08 322.256 264.872 321.225 264.872 320.098C264.872 318.902 265.106 317.836 265.574 316.9C266.042 315.964 266.709 315.227 267.576 314.69C268.443 314.135 269.465 313.858 270.644 313.858C271.84 313.858 272.811 314.101 273.556 314.586C274.301 315.054 274.856 315.704 275.22 316.536C275.601 317.368 275.818 318.304 275.87 319.344C275.766 319.777 275.584 320.141 275.324 320.436C274.943 320.436 274.44 320.436 273.816 320.436C273.209 320.436 272.542 320.445 271.814 320.462C271.086 320.462 270.341 320.479 269.578 320.514C268.833 320.549 268.122 320.583 267.446 320.618V319.058H272.646C272.646 317.897 272.464 316.987 272.1 316.328C271.736 315.652 271.207 315.314 270.514 315.314C270.098 315.314 269.708 315.453 269.344 315.73C268.997 315.99 268.711 316.423 268.486 317.03C268.278 317.619 268.174 318.425 268.174 319.448C268.174 320.332 268.278 321.155 268.486 321.918C268.711 322.681 269.093 323.296 269.63 323.764C270.167 324.232 270.913 324.466 271.866 324.466C272.455 324.466 273.036 324.353 273.608 324.128C274.18 323.885 274.674 323.556 275.09 323.14C275.246 323.227 275.393 323.383 275.532 323.608C275.671 323.833 275.74 324.05 275.74 324.258C275.116 324.951 274.397 325.454 273.582 325.766C272.785 326.078 271.866 326.234 270.826 326.234ZM286.61 314.716C286.593 315.149 286.584 315.6 286.584 316.068C286.584 316.536 286.619 316.995 286.688 317.446C286.48 317.585 286.22 317.689 285.908 317.758C285.613 317.827 285.301 317.862 284.972 317.862C284.937 317.394 284.807 316.961 284.582 316.562C284.374 316.163 284.079 315.843 283.698 315.6C283.317 315.357 282.857 315.236 282.32 315.236C281.869 315.236 281.505 315.349 281.228 315.574C280.968 315.799 280.838 316.094 280.838 316.458C280.838 316.718 280.899 316.961 281.02 317.186C281.141 317.394 281.41 317.619 281.826 317.862C282.242 318.105 282.892 318.399 283.776 318.746C284.729 319.11 285.483 319.474 286.038 319.838C286.593 320.185 286.983 320.575 287.208 321.008C287.433 321.441 287.546 321.953 287.546 322.542C287.546 323.305 287.329 323.963 286.896 324.518C286.463 325.073 285.856 325.497 285.076 325.792C284.296 326.087 283.395 326.234 282.372 326.234C281.315 326.234 280.448 326.156 279.772 326C279.113 325.844 278.472 325.61 277.848 325.298C277.883 325.003 277.9 324.657 277.9 324.258C277.917 323.859 277.926 323.469 277.926 323.088C277.926 322.689 277.909 322.351 277.874 322.074C278.065 321.953 278.325 321.866 278.654 321.814C279.001 321.745 279.33 321.71 279.642 321.71C279.763 322.715 280.067 323.469 280.552 323.972C281.037 324.475 281.67 324.726 282.45 324.726C283.057 324.726 283.525 324.596 283.854 324.336C284.201 324.076 284.374 323.729 284.374 323.296C284.374 323.019 284.305 322.776 284.166 322.568C284.027 322.343 283.767 322.126 283.386 321.918C283.022 321.693 282.476 321.441 281.748 321.164C280.899 320.817 280.188 320.479 279.616 320.15C279.061 319.821 278.645 319.422 278.368 318.954C278.091 318.486 277.952 317.897 277.952 317.186C277.952 316.614 278.082 316.12 278.342 315.704C278.619 315.288 278.983 314.941 279.434 314.664C279.885 314.387 280.387 314.187 280.942 314.066C281.497 313.927 282.051 313.858 282.606 313.858C283.473 313.858 284.218 313.936 284.842 314.092C285.466 314.231 286.055 314.439 286.61 314.716ZM289.246 326.078C289.246 325.818 289.255 325.567 289.272 325.324C289.307 325.081 289.359 324.865 289.428 324.674C290.121 324.657 290.581 324.492 290.806 324.18C291.049 323.868 291.17 323.279 291.17 322.412V317.862C291.17 317.446 291.127 317.108 291.04 316.848C290.953 316.588 290.771 316.389 290.494 316.25C290.217 316.111 289.801 316.033 289.246 316.016C289.246 315.773 289.263 315.548 289.298 315.34C289.333 315.115 289.402 314.915 289.506 314.742C289.957 314.742 290.459 314.699 291.014 314.612C291.586 314.525 292.115 314.413 292.6 314.274C293.085 314.135 293.441 313.997 293.666 313.858C293.874 313.927 294.039 314.057 294.16 314.248C294.299 314.439 294.368 314.725 294.368 315.106V322.412C294.368 323.279 294.481 323.868 294.706 324.18C294.931 324.492 295.347 324.657 295.954 324.674C296.023 324.865 296.067 325.09 296.084 325.35C296.101 325.61 296.11 325.853 296.11 326.078C295.833 326.061 295.503 326.043 295.122 326.026C294.758 326.026 294.368 326.017 293.952 326C293.536 326 293.12 326 292.704 326C292.288 326 291.863 326 291.43 326C290.997 326.017 290.589 326.026 290.208 326.026C289.844 326.043 289.523 326.061 289.246 326.078ZM292.496 311.466C291.941 311.466 291.482 311.31 291.118 310.998C290.771 310.669 290.598 310.261 290.598 309.776C290.598 309.204 290.789 308.762 291.17 308.45C291.551 308.121 292.011 307.956 292.548 307.956C293.155 307.956 293.631 308.121 293.978 308.45C294.342 308.762 294.524 309.195 294.524 309.75C294.524 310.218 294.333 310.625 293.952 310.972C293.571 311.301 293.085 311.466 292.496 311.466ZM302.688 332.474C301.509 332.474 300.565 332.335 299.854 332.058C299.161 331.798 298.658 331.417 298.346 330.914C298.034 330.411 297.878 329.822 297.878 329.146C297.878 328.487 298.06 327.915 298.424 327.43C298.805 326.945 299.351 326.581 300.062 326.338L301.622 326.546C301.223 326.875 300.955 327.179 300.816 327.456C300.677 327.751 300.608 328.097 300.608 328.496C300.608 329.293 300.816 329.891 301.232 330.29C301.665 330.689 302.393 330.888 303.416 330.888C304.543 330.888 305.418 330.645 306.042 330.16C306.683 329.675 307.004 329.103 307.004 328.444C307.004 328.08 306.909 327.794 306.718 327.586C306.527 327.378 306.172 327.222 305.652 327.118C305.132 327.031 304.369 326.988 303.364 326.988C302.601 326.971 301.925 326.927 301.336 326.858C300.747 326.789 300.244 326.659 299.828 326.468C299.429 326.277 299.126 326.017 298.918 325.688C298.71 325.359 298.606 324.925 298.606 324.388C298.606 323.729 298.788 323.14 299.152 322.62C299.516 322.083 299.949 321.615 300.452 321.216L301.908 321.866C301.613 322.074 301.388 322.291 301.232 322.516C301.093 322.724 301.024 322.923 301.024 323.114C301.024 323.426 301.145 323.651 301.388 323.79C301.631 323.929 302.038 324.015 302.61 324.05C303.199 324.085 303.988 324.102 304.976 324.102C306.051 324.102 306.943 324.197 307.654 324.388C308.382 324.561 308.919 324.865 309.266 325.298C309.63 325.731 309.812 326.347 309.812 327.144C309.812 327.82 309.639 328.47 309.292 329.094C308.945 329.735 308.46 330.307 307.836 330.81C307.212 331.313 306.458 331.711 305.574 332.006C304.707 332.318 303.745 332.474 302.688 332.474ZM303.468 322.36C302.463 322.36 301.57 322.204 300.79 321.892C300.01 321.58 299.395 321.112 298.944 320.488C298.493 319.864 298.268 319.084 298.268 318.148C298.268 317.299 298.459 316.553 298.84 315.912C299.221 315.271 299.793 314.768 300.556 314.404C301.319 314.04 302.237 313.858 303.312 313.858C304.283 313.858 305.106 313.997 305.782 314.274C306.475 314.551 307.039 314.915 307.472 315.366C307.905 315.799 308.217 316.267 308.408 316.77C308.616 317.273 308.72 317.732 308.72 318.148C308.72 318.945 308.521 319.665 308.122 320.306C307.741 320.93 307.16 321.433 306.38 321.814C305.6 322.178 304.629 322.36 303.468 322.36ZM303.78 320.982C304.317 320.982 304.742 320.757 305.054 320.306C305.383 319.855 305.548 319.197 305.548 318.33C305.548 317.411 305.349 316.657 304.95 316.068C304.551 315.461 303.997 315.158 303.286 315.158C302.662 315.158 302.203 315.418 301.908 315.938C301.613 316.458 301.466 317.082 301.466 317.81C301.466 318.833 301.665 319.621 302.064 320.176C302.48 320.713 303.052 320.982 303.78 320.982ZM310.072 315.938C309.777 315.851 309.448 315.773 309.084 315.704C308.737 315.635 308.391 315.574 308.044 315.522C307.697 315.47 307.385 315.435 307.108 315.418L304.898 314.092H309.838C309.925 314.335 309.985 314.621 310.02 314.95C310.055 315.262 310.072 315.591 310.072 315.938ZM313.742 320.514V318.018C313.742 317.55 313.699 317.177 313.612 316.9C313.543 316.623 313.37 316.415 313.092 316.276C312.832 316.137 312.416 316.051 311.844 316.016C311.844 315.773 311.862 315.548 311.896 315.34C311.931 315.115 312 314.915 312.104 314.742C312.884 314.707 313.664 314.603 314.444 314.43C315.242 314.257 315.848 314.066 316.264 313.858C316.455 313.927 316.611 314.066 316.732 314.274C316.871 314.465 316.94 314.759 316.94 315.158L313.742 320.514ZM324.948 322.412C324.948 323.296 325.061 323.894 325.286 324.206C325.512 324.518 325.867 324.674 326.352 324.674C326.439 324.865 326.491 325.073 326.508 325.298C326.526 325.506 326.534 325.766 326.534 326.078C326.153 326.043 325.685 326.017 325.13 326C324.576 326 324.021 326 323.466 326C323.102 326 322.695 326 322.244 326C321.811 326.017 321.395 326.026 320.996 326.026C320.598 326.043 320.26 326.061 319.982 326.078C319.982 325.801 319.991 325.549 320.008 325.324C320.043 325.081 320.095 324.865 320.164 324.674C320.702 324.674 321.1 324.509 321.36 324.18C321.638 323.833 321.776 323.209 321.776 322.308V319.058C321.776 317.897 321.577 317.108 321.178 316.692C320.797 316.259 320.277 316.042 319.618 316.042C319.185 316.042 318.76 316.198 318.344 316.51C317.928 316.805 317.59 317.264 317.33 317.888C317.07 318.512 316.94 319.309 316.94 320.28V322.412C316.94 323.279 317.062 323.877 317.304 324.206C317.547 324.518 317.963 324.674 318.552 324.674C318.622 324.882 318.665 325.099 318.682 325.324C318.7 325.532 318.708 325.783 318.708 326.078C318.466 326.061 318.154 326.043 317.772 326.026C317.391 326.026 316.984 326.017 316.55 326C316.134 326 315.727 326 315.328 326C314.964 326 314.557 326 314.106 326C313.656 326.017 313.222 326.026 312.806 326.026C312.408 326.043 312.078 326.061 311.818 326.078C311.818 325.783 311.827 325.515 311.844 325.272C311.879 325.029 311.931 324.83 312 324.674C312.676 324.674 313.136 324.518 313.378 324.206C313.621 323.877 313.742 323.279 313.742 322.412V318.018L316.94 315.158C316.94 315.366 316.923 315.609 316.888 315.886C316.854 316.146 316.793 316.423 316.706 316.718C316.793 316.545 316.871 316.371 316.94 316.198C317.027 316.025 317.148 315.86 317.304 315.704C317.634 315.305 318.11 314.924 318.734 314.56C319.376 314.179 320.13 313.988 320.996 313.988C321.69 313.988 322.34 314.127 322.946 314.404C323.553 314.681 324.038 315.132 324.402 315.756C324.766 316.363 324.948 317.186 324.948 318.226V322.412Z" fill="#00413D"/>
<defs>
<filter id="filter0_d_403_485" x="0" y="0" width="470" height="482" filterUnits="userSpaceOnUse" color-interpolation-filters="sRGB">
<feFlood flood-opacity="0" result="BackgroundImageFix"/>
<feColorMatrix in="SourceAlpha" type="matrix" values="0 0 0 0 0 0 0 0 0 0 0 0 0 0 0 0 0 0 127 0" result="hardAlpha"/>
<feOffset dy="20"/>
<feGaussianBlur stdDeviation="50"/>
<feComposite in2="hardAlpha" operator="out"/>
<feColorMatrix type="matrix" values="0 0 0 0 0 0 0 0 0 0.254902 0 0 0 0 0.239216 0 0 0 0.06 0"/>
<feBlend mode="normal" in2="BackgroundImageFix" result="effect1_dropShadow_403_485"/>
<feBlend mode="normal" in="SourceGraphic" in2="effect1_dropShadow_403_485" result="shape"/>
</filter>
<clipPath id="clip0_403_485">
<rect width="167" height="167" fill="white" transform="translate(147 110)"/>
</clipPath>
</defs>
</svg>
