<svg width="470" height="482" viewBox="0 0 470 482" fill="none" xmlns="http://www.w3.org/2000/svg">
<g filter="url(#filter0_d_403_496)">
<rect x="100" y="80" width="270" height="282" fill="white"/>
</g>
<g clip-path="url(#clip0_403_496)">
<g opacity="0.3">
<path d="M235.5 277C189.456 277 152 239.544 152 193.5C152 147.456 189.456 110 235.5 110C281.544 110 319 147.456 319 193.5C319 239.544 281.544 277 235.5 277ZM235.5 119.801C194.89 119.801 161.801 152.842 161.801 193.5C161.801 234.158 194.89 267.199 235.5 267.199C276.11 267.199 309.199 234.158 309.199 193.5C309.199 152.842 276.11 119.801 235.5 119.801Z" fill="#C4C4C4"/>
</g>
<path d="M235.5 277C189.456 277 152 239.544 152 193.5C152 147.456 189.456 110 235.5 110C238.217 110 240.4 112.183 240.4 114.9C240.4 117.617 238.217 119.801 235.5 119.801C194.89 119.801 161.801 152.842 161.801 193.5C161.801 234.158 194.89 267.199 235.5 267.199C276.11 267.199 309.199 234.158 309.199 193.5C309.199 173.025 301 154.006 286.153 139.936C284.164 138.092 284.115 134.987 285.959 132.998C287.803 131.008 290.908 130.96 292.897 132.804C309.733 148.766 319.049 170.308 319.049 193.451C319 239.544 281.544 277 235.5 277Z" fill="#E5745D"/>
<path d="M207.126 194.596C206.514 195.049 206.027 195.503 205.664 195.956C205.324 196.409 205.075 196.919 204.916 197.486C204.757 198.03 204.678 198.687 204.678 199.458C204.678 200.705 205.007 201.691 205.664 202.416C206.344 203.119 207.228 203.47 208.316 203.47C209.223 203.47 209.937 203.198 210.458 202.654C210.979 202.087 211.24 201.351 211.24 200.444C211.24 199.583 211.025 198.823 210.594 198.166C210.186 197.486 209.597 196.851 208.826 196.262C208.055 195.65 207.16 195.038 206.14 194.426C205.233 193.859 204.417 193.293 203.692 192.726C202.989 192.159 202.434 191.547 202.026 190.89C201.641 190.21 201.448 189.428 201.448 188.544C201.448 186.957 202.026 185.699 203.182 184.77C204.338 183.818 205.947 183.342 208.01 183.342C210.005 183.342 211.603 183.75 212.804 184.566C214.005 185.359 214.606 186.481 214.606 187.932C214.606 188.793 214.413 189.541 214.028 190.176C213.643 190.811 213.121 191.366 212.464 191.842C211.829 192.295 211.149 192.692 210.424 193.032L208.656 192.08C209.381 191.604 209.903 191.071 210.22 190.482C210.537 189.893 210.696 189.179 210.696 188.34C210.696 187.343 210.447 186.549 209.948 185.96C209.472 185.371 208.826 185.076 208.01 185.076C207.262 185.076 206.661 185.303 206.208 185.756C205.777 186.209 205.562 186.81 205.562 187.558C205.539 188.442 205.777 189.179 206.276 189.768C206.797 190.335 207.636 190.947 208.792 191.604C210.152 192.397 211.331 193.168 212.328 193.916C213.325 194.664 214.085 195.48 214.606 196.364C215.127 197.248 215.388 198.291 215.388 199.492C215.388 201.328 214.731 202.756 213.416 203.776C212.124 204.796 210.288 205.306 207.908 205.306C205.641 205.306 203.862 204.841 202.57 203.912C201.278 202.96 200.632 201.657 200.632 200.002C200.632 198.506 201.063 197.248 201.924 196.228C202.785 195.185 204.055 194.245 205.732 193.406L207.126 194.596ZM220.68 187.898C221.473 187.921 222.187 187.943 222.822 187.966C223.457 187.989 224.091 188 224.726 188C225.383 188 226.12 188 226.936 188C227.548 188 227.99 187.841 228.262 187.524C228.534 187.184 228.67 186.776 228.67 186.3C228.942 186.209 229.259 186.153 229.622 186.13C229.985 186.107 230.325 186.096 230.642 186.096C230.551 186.821 230.495 187.615 230.472 188.476C230.449 189.315 230.438 190.176 230.438 191.06C230.325 191.287 230.143 191.468 229.894 191.604C229.645 191.74 229.293 191.808 228.84 191.808C228.296 191.808 227.684 191.808 227.004 191.808C226.324 191.808 225.633 191.819 224.93 191.842C224.25 191.842 223.627 191.853 223.06 191.876C222.493 191.876 222.063 191.887 221.768 191.91L221.088 194.8C223.332 195.208 225.202 195.752 226.698 196.432C228.194 197.112 229.316 197.985 230.064 199.05C230.812 200.093 231.186 201.396 231.186 202.96C231.186 204.275 230.914 205.419 230.37 206.394C229.849 207.369 229.146 208.185 228.262 208.842C227.401 209.499 226.449 209.987 225.406 210.304C224.386 210.644 223.366 210.814 222.346 210.814C221.394 210.814 220.567 210.712 219.864 210.508C219.161 210.327 218.606 210.1 218.198 209.828C218.198 209.556 218.232 209.284 218.3 209.012C218.391 208.763 218.538 208.525 218.742 208.298C218.991 208.411 219.399 208.513 219.966 208.604C220.533 208.717 221.179 208.774 221.904 208.774C222.788 208.774 223.604 208.581 224.352 208.196C225.1 207.811 225.689 207.244 226.12 206.496C226.573 205.771 226.8 204.921 226.8 203.946C226.8 203.13 226.607 202.405 226.222 201.77C225.837 201.135 225.304 200.603 224.624 200.172C223.944 199.719 223.151 199.345 222.244 199.05C221.337 198.733 220.374 198.506 219.354 198.37C219.127 198.189 218.946 197.973 218.81 197.724C218.697 197.452 218.629 197.18 218.606 196.908L220.68 187.898ZM239.089 205.238C238.681 205.125 238.33 204.955 238.035 204.728C237.741 204.479 237.537 204.229 237.423 203.98L256.123 181.676C256.486 181.721 256.826 181.835 257.143 182.016C257.461 182.175 257.733 182.39 257.959 182.662L239.089 205.238ZM241.231 192.794C240.03 192.794 239.033 192.545 238.239 192.046C237.469 191.525 236.879 190.867 236.471 190.074C236.063 189.281 235.859 188.453 235.859 187.592C235.859 186.617 236.075 185.711 236.505 184.872C236.936 184.011 237.571 183.319 238.409 182.798C239.248 182.254 240.302 181.982 241.571 181.982C242.705 181.982 243.645 182.243 244.393 182.764C245.141 183.263 245.697 183.909 246.059 184.702C246.445 185.495 246.637 186.3 246.637 187.116C246.637 188.136 246.422 189.077 245.991 189.938C245.583 190.799 244.983 191.491 244.189 192.012C243.396 192.533 242.41 192.794 241.231 192.794ZM241.469 190.992C241.968 190.992 242.444 190.709 242.897 190.142C243.373 189.553 243.611 188.691 243.611 187.558C243.611 186.447 243.373 185.541 242.897 184.838C242.444 184.113 241.855 183.75 241.129 183.75C240.54 183.75 240.019 184.079 239.565 184.736C239.135 185.371 238.919 186.175 238.919 187.15C238.919 188.283 239.146 189.213 239.599 189.938C240.075 190.641 240.699 190.992 241.469 190.992ZM253.811 205.272C252.61 205.272 251.613 205.023 250.819 204.524C250.049 204.003 249.459 203.345 249.051 202.552C248.643 201.759 248.439 200.931 248.439 200.07C248.439 199.095 248.655 198.189 249.085 197.35C249.516 196.489 250.151 195.797 250.989 195.276C251.851 194.732 252.905 194.46 254.151 194.46C255.285 194.46 256.214 194.721 256.939 195.242C257.687 195.741 258.254 196.387 258.639 197.18C259.025 197.973 259.217 198.778 259.217 199.594C259.217 200.614 259.002 201.555 258.571 202.416C258.163 203.277 257.563 203.969 256.769 204.49C255.976 205.011 254.99 205.272 253.811 205.272ZM254.049 203.47C254.548 203.47 255.024 203.187 255.477 202.62C255.953 202.031 256.191 201.169 256.191 200.036C256.191 198.925 255.953 198.019 255.477 197.316C255.024 196.591 254.435 196.228 253.709 196.228C253.12 196.228 252.599 196.557 252.145 197.214C251.715 197.849 251.499 198.653 251.499 199.628C251.499 200.761 251.726 201.691 252.179 202.416C252.655 203.119 253.279 203.47 254.049 203.47Z" fill="#E5745D"/>
</g>
<path d="M146.52 308.346C146.728 308.363 146.979 308.381 147.274 308.398C147.586 308.398 147.907 308.407 148.236 308.424C148.565 308.424 148.877 308.424 149.172 308.424C149.467 308.424 149.718 308.424 149.926 308.424C150.203 308.424 150.55 308.424 150.966 308.424C151.399 308.407 151.841 308.398 152.292 308.398C152.76 308.381 153.159 308.363 153.488 308.346C153.488 308.554 153.479 308.779 153.462 309.022C153.445 309.265 153.401 309.507 153.332 309.75C152.76 309.802 152.344 309.897 152.084 310.036C151.824 310.175 151.711 310.435 151.746 310.816C151.781 311.197 151.928 311.778 152.188 312.558C152.5 313.477 152.821 314.473 153.15 315.548C153.497 316.605 153.835 317.697 154.164 318.824C154.493 319.933 154.814 321.008 155.126 322.048H154.346L159.052 308.372C159.243 308.303 159.459 308.259 159.702 308.242C159.962 308.225 160.231 308.216 160.508 308.216C161.097 309.707 161.678 311.232 162.25 312.792C162.839 314.335 163.411 315.886 163.966 317.446C164.538 318.989 165.084 320.505 165.604 321.996H164.928L167.58 313.468C167.979 312.168 168.074 311.258 167.866 310.738C167.675 310.201 167.155 309.871 166.306 309.75C166.219 309.542 166.159 309.308 166.124 309.048C166.107 308.788 166.098 308.554 166.098 308.346C166.462 308.363 166.887 308.381 167.372 308.398C167.875 308.415 168.36 308.424 168.828 308.424C169.227 308.424 169.669 308.415 170.154 308.398C170.639 308.381 171.055 308.363 171.402 308.346C171.402 308.571 171.385 308.805 171.35 309.048C171.333 309.291 171.281 309.525 171.194 309.75C170.899 309.837 170.639 310.001 170.414 310.244C170.206 310.469 169.998 310.842 169.79 311.362C169.582 311.865 169.331 312.584 169.036 313.52L165.136 326.052C164.963 326.104 164.72 326.147 164.408 326.182C164.096 326.217 163.81 326.234 163.55 326.234C163.03 324.761 162.493 323.279 161.938 321.788C161.383 320.28 160.82 318.772 160.248 317.264C159.693 315.756 159.121 314.274 158.532 312.818H159.052L154.554 326.078C154.415 326.113 154.242 326.139 154.034 326.156C153.843 326.191 153.653 326.208 153.462 326.208C153.271 326.225 153.089 326.234 152.916 326.234C152.223 323.929 151.521 321.649 150.81 319.396C150.117 317.125 149.423 314.959 148.73 312.896C148.401 311.943 148.141 311.258 147.95 310.842C147.759 310.409 147.569 310.131 147.378 310.01C147.205 309.889 146.971 309.811 146.676 309.776C146.607 309.568 146.563 309.343 146.546 309.1C146.529 308.84 146.52 308.589 146.52 308.346ZM176.809 326.234C175.439 326.234 174.313 325.965 173.429 325.428C172.562 324.873 171.912 324.128 171.479 323.192C171.063 322.256 170.855 321.225 170.855 320.098C170.855 318.902 171.089 317.836 171.557 316.9C172.025 315.964 172.692 315.227 173.559 314.69C174.425 314.135 175.448 313.858 176.627 313.858C177.823 313.858 178.793 314.101 179.539 314.586C180.284 315.054 180.839 315.704 181.203 316.536C181.584 317.368 181.801 318.304 181.853 319.344C181.749 319.777 181.567 320.141 181.307 320.436C180.925 320.436 180.423 320.436 179.799 320.436C179.192 320.436 178.525 320.445 177.797 320.462C177.069 320.462 176.323 320.479 175.561 320.514C174.815 320.549 174.105 320.583 173.429 320.618V319.058H178.629C178.629 317.897 178.447 316.987 178.083 316.328C177.719 315.652 177.19 315.314 176.497 315.314C176.081 315.314 175.691 315.453 175.327 315.73C174.98 315.99 174.694 316.423 174.469 317.03C174.261 317.619 174.157 318.425 174.157 319.448C174.157 320.332 174.261 321.155 174.469 321.918C174.694 322.681 175.075 323.296 175.613 323.764C176.15 324.232 176.895 324.466 177.849 324.466C178.438 324.466 179.019 324.353 179.591 324.128C180.163 323.885 180.657 323.556 181.073 323.14C181.229 323.227 181.376 323.383 181.515 323.608C181.653 323.833 181.723 324.05 181.723 324.258C181.099 324.951 180.379 325.454 179.565 325.766C178.767 326.078 177.849 326.234 176.809 326.234ZM187.756 323.582C188.068 323.963 188.406 324.267 188.77 324.492C189.152 324.717 189.611 324.83 190.148 324.83C190.495 324.83 190.859 324.761 191.24 324.622C191.639 324.483 192.012 324.241 192.358 323.894C192.722 323.547 193.017 323.053 193.242 322.412C193.468 321.771 193.58 320.947 193.58 319.942C193.58 319.006 193.45 318.235 193.19 317.628C192.93 317.021 192.601 316.562 192.202 316.25C191.804 315.938 191.388 315.782 190.954 315.782C190.486 315.782 190.027 315.938 189.576 316.25C189.143 316.545 188.779 317.03 188.484 317.706C188.207 318.382 188.068 319.292 188.068 320.436V324.388L187.756 323.582ZM190.096 326.234C189.247 326.234 188.441 326.156 187.678 326C186.933 325.844 186.274 325.627 185.702 325.35C185.13 325.073 184.662 324.761 184.298 324.414C184.506 324.171 184.654 323.825 184.74 323.374C184.844 322.923 184.896 322.256 184.896 321.372V311.362C184.896 310.946 184.853 310.608 184.766 310.348C184.68 310.088 184.498 309.889 184.22 309.75C183.943 309.611 183.518 309.533 182.946 309.516C182.946 309.273 182.964 309.048 182.998 308.84C183.033 308.615 183.102 308.415 183.206 308.242C183.674 308.242 184.186 308.199 184.74 308.112C185.312 308.025 185.841 307.913 186.326 307.774C186.812 307.635 187.167 307.497 187.392 307.358C187.583 307.427 187.739 307.557 187.86 307.748C187.999 307.939 188.068 308.225 188.068 308.606V314.638C188.068 315.054 188.051 315.392 188.016 315.652C187.982 315.895 187.938 316.146 187.886 316.406L187.704 318.486L187.158 317.706C187.418 317.082 187.652 316.605 187.86 316.276C188.068 315.929 188.259 315.669 188.432 315.496C188.606 315.253 188.857 315.011 189.186 314.768C189.533 314.508 189.94 314.291 190.408 314.118C190.876 313.945 191.379 313.858 191.916 313.858C192.939 313.858 193.823 314.057 194.568 314.456C195.314 314.837 195.894 315.444 196.31 316.276C196.726 317.091 196.934 318.157 196.934 319.474C196.934 320.757 196.648 321.909 196.076 322.932C195.504 323.937 194.707 324.743 193.684 325.35C192.662 325.939 191.466 326.234 190.096 326.234ZM204.352 326.078C204.352 325.783 204.36 325.523 204.378 325.298C204.395 325.055 204.438 324.847 204.508 324.674C204.976 324.639 205.331 324.553 205.574 324.414C205.834 324.258 206.016 323.998 206.12 323.634C206.224 323.253 206.276 322.707 206.276 321.996V312.22C206.276 311.561 206.224 311.067 206.12 310.738C206.033 310.409 205.86 310.175 205.6 310.036C205.34 309.88 204.976 309.785 204.508 309.75C204.456 309.577 204.412 309.36 204.378 309.1C204.36 308.823 204.352 308.571 204.352 308.346C204.681 308.363 205.088 308.381 205.574 308.398C206.059 308.398 206.562 308.407 207.082 308.424C207.619 308.424 208.122 308.424 208.59 308.424C209.04 308.424 209.508 308.415 209.994 308.398C210.496 308.381 211.008 308.372 211.528 308.372C212.481 308.372 213.426 308.441 214.362 308.58C215.298 308.701 216.173 308.935 216.988 309.282C217.82 309.611 218.556 310.097 219.198 310.738C219.839 311.362 220.342 312.168 220.706 313.156C221.07 314.127 221.252 315.331 221.252 316.77C221.252 318.174 221.078 319.379 220.732 320.384C220.385 321.389 219.926 322.23 219.354 322.906C218.782 323.582 218.14 324.128 217.43 324.544C216.719 324.96 216 325.272 215.272 325.48C214.544 325.688 213.85 325.827 213.192 325.896C212.533 325.965 211.97 326 211.502 326C211.016 326 210.436 326 209.76 326C209.084 326 208.39 326 207.68 326C206.969 326.017 206.31 326.026 205.704 326.026C205.114 326.043 204.664 326.061 204.352 326.078ZM211.866 324.57C212.628 324.57 213.356 324.466 214.05 324.258C214.76 324.05 215.393 323.677 215.948 323.14C216.502 322.603 216.936 321.857 217.248 320.904C217.577 319.933 217.742 318.694 217.742 317.186C217.742 315.782 217.56 314.603 217.196 313.65C216.832 312.679 216.346 311.908 215.74 311.336C215.133 310.747 214.44 310.322 213.66 310.062C212.88 309.802 212.074 309.672 211.242 309.672C210.895 309.672 210.522 309.707 210.124 309.776C209.742 309.845 209.482 309.932 209.344 310.036L209.604 309.204V321.97C209.604 322.663 209.664 323.201 209.786 323.582C209.907 323.946 210.132 324.206 210.462 324.362C210.791 324.501 211.259 324.57 211.866 324.57ZM229.088 326.234C227.719 326.234 226.592 325.965 225.708 325.428C224.841 324.873 224.191 324.128 223.758 323.192C223.342 322.256 223.134 321.225 223.134 320.098C223.134 318.902 223.368 317.836 223.836 316.9C224.304 315.964 224.971 315.227 225.838 314.69C226.705 314.135 227.727 313.858 228.906 313.858C230.102 313.858 231.073 314.101 231.818 314.586C232.563 315.054 233.118 315.704 233.482 316.536C233.863 317.368 234.08 318.304 234.132 319.344C234.028 319.777 233.846 320.141 233.586 320.436C233.205 320.436 232.702 320.436 232.078 320.436C231.471 320.436 230.804 320.445 230.076 320.462C229.348 320.462 228.603 320.479 227.84 320.514C227.095 320.549 226.384 320.583 225.708 320.618V319.058H230.908C230.908 317.897 230.726 316.987 230.362 316.328C229.998 315.652 229.469 315.314 228.776 315.314C228.36 315.314 227.97 315.453 227.606 315.73C227.259 315.99 226.973 316.423 226.748 317.03C226.54 317.619 226.436 318.425 226.436 319.448C226.436 320.332 226.54 321.155 226.748 321.918C226.973 322.681 227.355 323.296 227.892 323.764C228.429 324.232 229.175 324.466 230.128 324.466C230.717 324.466 231.298 324.353 231.87 324.128C232.442 323.885 232.936 323.556 233.352 323.14C233.508 323.227 233.655 323.383 233.794 323.608C233.933 323.833 234.002 324.05 234.002 324.258C233.378 324.951 232.659 325.454 231.844 325.766C231.047 326.078 230.128 326.234 229.088 326.234ZM244.872 314.716C244.854 315.149 244.846 315.6 244.846 316.068C244.846 316.536 244.88 316.995 244.95 317.446C244.742 317.585 244.482 317.689 244.17 317.758C243.875 317.827 243.563 317.862 243.234 317.862C243.199 317.394 243.069 316.961 242.844 316.562C242.636 316.163 242.341 315.843 241.96 315.6C241.578 315.357 241.119 315.236 240.582 315.236C240.131 315.236 239.767 315.349 239.49 315.574C239.23 315.799 239.1 316.094 239.1 316.458C239.1 316.718 239.16 316.961 239.282 317.186C239.403 317.394 239.672 317.619 240.088 317.862C240.504 318.105 241.154 318.399 242.038 318.746C242.991 319.11 243.745 319.474 244.3 319.838C244.854 320.185 245.244 320.575 245.47 321.008C245.695 321.441 245.808 321.953 245.808 322.542C245.808 323.305 245.591 323.963 245.158 324.518C244.724 325.073 244.118 325.497 243.338 325.792C242.558 326.087 241.656 326.234 240.634 326.234C239.576 326.234 238.71 326.156 238.034 326C237.375 325.844 236.734 325.61 236.11 325.298C236.144 325.003 236.162 324.657 236.162 324.258C236.179 323.859 236.188 323.469 236.188 323.088C236.188 322.689 236.17 322.351 236.136 322.074C236.326 321.953 236.586 321.866 236.916 321.814C237.262 321.745 237.592 321.71 237.904 321.71C238.025 322.715 238.328 323.469 238.814 323.972C239.299 324.475 239.932 324.726 240.712 324.726C241.318 324.726 241.786 324.596 242.116 324.336C242.462 324.076 242.636 323.729 242.636 323.296C242.636 323.019 242.566 322.776 242.428 322.568C242.289 322.343 242.029 322.126 241.648 321.918C241.284 321.693 240.738 321.441 240.01 321.164C239.16 320.817 238.45 320.479 237.878 320.15C237.323 319.821 236.907 319.422 236.63 318.954C236.352 318.486 236.214 317.897 236.214 317.186C236.214 316.614 236.344 316.12 236.604 315.704C236.881 315.288 237.245 314.941 237.696 314.664C238.146 314.387 238.649 314.187 239.204 314.066C239.758 313.927 240.313 313.858 240.868 313.858C241.734 313.858 242.48 313.936 243.104 314.092C243.728 314.231 244.317 314.439 244.872 314.716ZM247.508 326.078C247.508 325.818 247.516 325.567 247.534 325.324C247.568 325.081 247.62 324.865 247.69 324.674C248.383 324.657 248.842 324.492 249.068 324.18C249.31 323.868 249.432 323.279 249.432 322.412V317.862C249.432 317.446 249.388 317.108 249.302 316.848C249.215 316.588 249.033 316.389 248.756 316.25C248.478 316.111 248.062 316.033 247.508 316.016C247.508 315.773 247.525 315.548 247.56 315.34C247.594 315.115 247.664 314.915 247.768 314.742C248.218 314.742 248.721 314.699 249.276 314.612C249.848 314.525 250.376 314.413 250.862 314.274C251.347 314.135 251.702 313.997 251.928 313.858C252.136 313.927 252.3 314.057 252.422 314.248C252.56 314.439 252.63 314.725 252.63 315.106V322.412C252.63 323.279 252.742 323.868 252.968 324.18C253.193 324.492 253.609 324.657 254.216 324.674C254.285 324.865 254.328 325.09 254.346 325.35C254.363 325.61 254.372 325.853 254.372 326.078C254.094 326.061 253.765 326.043 253.384 326.026C253.02 326.026 252.63 326.017 252.214 326C251.798 326 251.382 326 250.966 326C250.55 326 250.125 326 249.692 326C249.258 326.017 248.851 326.026 248.47 326.026C248.106 326.043 247.785 326.061 247.508 326.078ZM250.758 311.466C250.203 311.466 249.744 311.31 249.38 310.998C249.033 310.669 248.86 310.261 248.86 309.776C248.86 309.204 249.05 308.762 249.432 308.45C249.813 308.121 250.272 307.956 250.81 307.956C251.416 307.956 251.893 308.121 252.24 308.45C252.604 308.762 252.786 309.195 252.786 309.75C252.786 310.218 252.595 310.625 252.214 310.972C251.832 311.301 251.347 311.466 250.758 311.466ZM260.95 332.474C259.771 332.474 258.827 332.335 258.116 332.058C257.423 331.798 256.92 331.417 256.608 330.914C256.296 330.411 256.14 329.822 256.14 329.146C256.14 328.487 256.322 327.915 256.686 327.43C257.067 326.945 257.613 326.581 258.324 326.338L259.884 326.546C259.485 326.875 259.217 327.179 259.078 327.456C258.939 327.751 258.87 328.097 258.87 328.496C258.87 329.293 259.078 329.891 259.494 330.29C259.927 330.689 260.655 330.888 261.678 330.888C262.805 330.888 263.68 330.645 264.304 330.16C264.945 329.675 265.266 329.103 265.266 328.444C265.266 328.08 265.171 327.794 264.98 327.586C264.789 327.378 264.434 327.222 263.914 327.118C263.394 327.031 262.631 326.988 261.626 326.988C260.863 326.971 260.187 326.927 259.598 326.858C259.009 326.789 258.506 326.659 258.09 326.468C257.691 326.277 257.388 326.017 257.18 325.688C256.972 325.359 256.868 324.925 256.868 324.388C256.868 323.729 257.05 323.14 257.414 322.62C257.778 322.083 258.211 321.615 258.714 321.216L260.17 321.866C259.875 322.074 259.65 322.291 259.494 322.516C259.355 322.724 259.286 322.923 259.286 323.114C259.286 323.426 259.407 323.651 259.65 323.79C259.893 323.929 260.3 324.015 260.872 324.05C261.461 324.085 262.25 324.102 263.238 324.102C264.313 324.102 265.205 324.197 265.916 324.388C266.644 324.561 267.181 324.865 267.528 325.298C267.892 325.731 268.074 326.347 268.074 327.144C268.074 327.82 267.901 328.47 267.554 329.094C267.207 329.735 266.722 330.307 266.098 330.81C265.474 331.313 264.72 331.711 263.836 332.006C262.969 332.318 262.007 332.474 260.95 332.474ZM261.73 322.36C260.725 322.36 259.832 322.204 259.052 321.892C258.272 321.58 257.657 321.112 257.206 320.488C256.755 319.864 256.53 319.084 256.53 318.148C256.53 317.299 256.721 316.553 257.102 315.912C257.483 315.271 258.055 314.768 258.818 314.404C259.581 314.04 260.499 313.858 261.574 313.858C262.545 313.858 263.368 313.997 264.044 314.274C264.737 314.551 265.301 314.915 265.734 315.366C266.167 315.799 266.479 316.267 266.67 316.77C266.878 317.273 266.982 317.732 266.982 318.148C266.982 318.945 266.783 319.665 266.384 320.306C266.003 320.93 265.422 321.433 264.642 321.814C263.862 322.178 262.891 322.36 261.73 322.36ZM262.042 320.982C262.579 320.982 263.004 320.757 263.316 320.306C263.645 319.855 263.81 319.197 263.81 318.33C263.81 317.411 263.611 316.657 263.212 316.068C262.813 315.461 262.259 315.158 261.548 315.158C260.924 315.158 260.465 315.418 260.17 315.938C259.875 316.458 259.728 317.082 259.728 317.81C259.728 318.833 259.927 319.621 260.326 320.176C260.742 320.713 261.314 320.982 262.042 320.982ZM268.334 315.938C268.039 315.851 267.71 315.773 267.346 315.704C266.999 315.635 266.653 315.574 266.306 315.522C265.959 315.47 265.647 315.435 265.37 315.418L263.16 314.092H268.1C268.187 314.335 268.247 314.621 268.282 314.95C268.317 315.262 268.334 315.591 268.334 315.938ZM272.004 320.514V318.018C272.004 317.55 271.961 317.177 271.874 316.9C271.805 316.623 271.631 316.415 271.354 316.276C271.094 316.137 270.678 316.051 270.106 316.016C270.106 315.773 270.123 315.548 270.158 315.34C270.193 315.115 270.262 314.915 270.366 314.742C271.146 314.707 271.926 314.603 272.706 314.43C273.503 314.257 274.11 314.066 274.526 313.858C274.717 313.927 274.873 314.066 274.994 314.274C275.133 314.465 275.202 314.759 275.202 315.158L272.004 320.514ZM283.21 322.412C283.21 323.296 283.323 323.894 283.548 324.206C283.773 324.518 284.129 324.674 284.614 324.674C284.701 324.865 284.753 325.073 284.77 325.298C284.787 325.506 284.796 325.766 284.796 326.078C284.415 326.043 283.947 326.017 283.392 326C282.837 326 282.283 326 281.728 326C281.364 326 280.957 326 280.506 326C280.073 326.017 279.657 326.026 279.258 326.026C278.859 326.043 278.521 326.061 278.244 326.078C278.244 325.801 278.253 325.549 278.27 325.324C278.305 325.081 278.357 324.865 278.426 324.674C278.963 324.674 279.362 324.509 279.622 324.18C279.899 323.833 280.038 323.209 280.038 322.308V319.058C280.038 317.897 279.839 317.108 279.44 316.692C279.059 316.259 278.539 316.042 277.88 316.042C277.447 316.042 277.022 316.198 276.606 316.51C276.19 316.805 275.852 317.264 275.592 317.888C275.332 318.512 275.202 319.309 275.202 320.28V322.412C275.202 323.279 275.323 323.877 275.566 324.206C275.809 324.518 276.225 324.674 276.814 324.674C276.883 324.882 276.927 325.099 276.944 325.324C276.961 325.532 276.97 325.783 276.97 326.078C276.727 326.061 276.415 326.043 276.034 326.026C275.653 326.026 275.245 326.017 274.812 326C274.396 326 273.989 326 273.59 326C273.226 326 272.819 326 272.368 326C271.917 326.017 271.484 326.026 271.068 326.026C270.669 326.043 270.34 326.061 270.08 326.078C270.08 325.783 270.089 325.515 270.106 325.272C270.141 325.029 270.193 324.83 270.262 324.674C270.938 324.674 271.397 324.518 271.64 324.206C271.883 323.877 272.004 323.279 272.004 322.412V318.018L275.202 315.158C275.202 315.366 275.185 315.609 275.15 315.886C275.115 316.146 275.055 316.423 274.968 316.718C275.055 316.545 275.133 316.371 275.202 316.198C275.289 316.025 275.41 315.86 275.566 315.704C275.895 315.305 276.372 314.924 276.996 314.56C277.637 314.179 278.391 313.988 279.258 313.988C279.951 313.988 280.601 314.127 281.208 314.404C281.815 314.681 282.3 315.132 282.664 315.756C283.028 316.363 283.21 317.186 283.21 318.226V322.412ZM286.584 326.078C286.584 325.818 286.592 325.567 286.61 325.324C286.644 325.081 286.696 324.865 286.766 324.674C287.459 324.657 287.918 324.492 288.144 324.18C288.386 323.868 288.508 323.279 288.508 322.412V317.862C288.508 317.446 288.464 317.108 288.378 316.848C288.291 316.588 288.109 316.389 287.832 316.25C287.554 316.111 287.138 316.033 286.584 316.016C286.584 315.773 286.601 315.548 286.636 315.34C286.67 315.115 286.74 314.915 286.844 314.742C287.294 314.742 287.797 314.699 288.352 314.612C288.924 314.525 289.452 314.413 289.938 314.274C290.423 314.135 290.778 313.997 291.004 313.858C291.212 313.927 291.376 314.057 291.498 314.248C291.636 314.439 291.706 314.725 291.706 315.106V322.412C291.706 323.279 291.818 323.868 292.044 324.18C292.269 324.492 292.685 324.657 293.292 324.674C293.361 324.865 293.404 325.09 293.422 325.35C293.439 325.61 293.448 325.853 293.448 326.078C293.17 326.061 292.841 326.043 292.46 326.026C292.096 326.026 291.706 326.017 291.29 326C290.874 326 290.458 326 290.042 326C289.626 326 289.201 326 288.768 326C288.334 326.017 287.927 326.026 287.546 326.026C287.182 326.043 286.861 326.061 286.584 326.078ZM289.834 311.466C289.279 311.466 288.82 311.31 288.456 310.998C288.109 310.669 287.936 310.261 287.936 309.776C287.936 309.204 288.126 308.762 288.508 308.45C288.889 308.121 289.348 307.956 289.886 307.956C290.492 307.956 290.969 308.121 291.316 308.45C291.68 308.762 291.862 309.195 291.862 309.75C291.862 310.218 291.671 310.625 291.29 310.972C290.908 311.301 290.423 311.466 289.834 311.466ZM297.166 320.514V318.018C297.166 317.55 297.123 317.177 297.036 316.9C296.967 316.623 296.793 316.415 296.516 316.276C296.256 316.137 295.84 316.051 295.268 316.016C295.268 315.773 295.285 315.548 295.32 315.34C295.355 315.115 295.424 314.915 295.528 314.742C296.308 314.707 297.088 314.603 297.868 314.43C298.665 314.257 299.272 314.066 299.688 313.858C299.879 313.927 300.035 314.066 300.156 314.274C300.295 314.465 300.364 314.759 300.364 315.158L297.166 320.514ZM308.372 322.412C308.372 323.296 308.485 323.894 308.71 324.206C308.935 324.518 309.291 324.674 309.776 324.674C309.863 324.865 309.915 325.073 309.932 325.298C309.949 325.506 309.958 325.766 309.958 326.078C309.577 326.043 309.109 326.017 308.554 326C307.999 326 307.445 326 306.89 326C306.526 326 306.119 326 305.668 326C305.235 326.017 304.819 326.026 304.42 326.026C304.021 326.043 303.683 326.061 303.406 326.078C303.406 325.801 303.415 325.549 303.432 325.324C303.467 325.081 303.519 324.865 303.588 324.674C304.125 324.674 304.524 324.509 304.784 324.18C305.061 323.833 305.2 323.209 305.2 322.308V319.058C305.2 317.897 305.001 317.108 304.602 316.692C304.221 316.259 303.701 316.042 303.042 316.042C302.609 316.042 302.184 316.198 301.768 316.51C301.352 316.805 301.014 317.264 300.754 317.888C300.494 318.512 300.364 319.309 300.364 320.28V322.412C300.364 323.279 300.485 323.877 300.728 324.206C300.971 324.518 301.387 324.674 301.976 324.674C302.045 324.882 302.089 325.099 302.106 325.324C302.123 325.532 302.132 325.783 302.132 326.078C301.889 326.061 301.577 326.043 301.196 326.026C300.815 326.026 300.407 326.017 299.974 326C299.558 326 299.151 326 298.752 326C298.388 326 297.981 326 297.53 326C297.079 326.017 296.646 326.026 296.23 326.026C295.831 326.043 295.502 326.061 295.242 326.078C295.242 325.783 295.251 325.515 295.268 325.272C295.303 325.029 295.355 324.83 295.424 324.674C296.1 324.674 296.559 324.518 296.802 324.206C297.045 323.877 297.166 323.279 297.166 322.412V318.018L300.364 315.158C300.364 315.366 300.347 315.609 300.312 315.886C300.277 316.146 300.217 316.423 300.13 316.718C300.217 316.545 300.295 316.371 300.364 316.198C300.451 316.025 300.572 315.86 300.728 315.704C301.057 315.305 301.534 314.924 302.158 314.56C302.799 314.179 303.553 313.988 304.42 313.988C305.113 313.988 305.763 314.127 306.37 314.404C306.977 314.681 307.462 315.132 307.826 315.756C308.19 316.363 308.372 317.186 308.372 318.226V322.412ZM316.53 332.474C315.351 332.474 314.407 332.335 313.696 332.058C313.003 331.798 312.5 331.417 312.188 330.914C311.876 330.411 311.72 329.822 311.72 329.146C311.72 328.487 311.902 327.915 312.266 327.43C312.647 326.945 313.193 326.581 313.904 326.338L315.464 326.546C315.065 326.875 314.797 327.179 314.658 327.456C314.519 327.751 314.45 328.097 314.45 328.496C314.45 329.293 314.658 329.891 315.074 330.29C315.507 330.689 316.235 330.888 317.258 330.888C318.385 330.888 319.26 330.645 319.884 330.16C320.525 329.675 320.846 329.103 320.846 328.444C320.846 328.08 320.751 327.794 320.56 327.586C320.369 327.378 320.014 327.222 319.494 327.118C318.974 327.031 318.211 326.988 317.206 326.988C316.443 326.971 315.767 326.927 315.178 326.858C314.589 326.789 314.086 326.659 313.67 326.468C313.271 326.277 312.968 326.017 312.76 325.688C312.552 325.359 312.448 324.925 312.448 324.388C312.448 323.729 312.63 323.14 312.994 322.62C313.358 322.083 313.791 321.615 314.294 321.216L315.75 321.866C315.455 322.074 315.23 322.291 315.074 322.516C314.935 322.724 314.866 322.923 314.866 323.114C314.866 323.426 314.987 323.651 315.23 323.79C315.473 323.929 315.88 324.015 316.452 324.05C317.041 324.085 317.83 324.102 318.818 324.102C319.893 324.102 320.785 324.197 321.496 324.388C322.224 324.561 322.761 324.865 323.108 325.298C323.472 325.731 323.654 326.347 323.654 327.144C323.654 327.82 323.481 328.47 323.134 329.094C322.787 329.735 322.302 330.307 321.678 330.81C321.054 331.313 320.3 331.711 319.416 332.006C318.549 332.318 317.587 332.474 316.53 332.474ZM317.31 322.36C316.305 322.36 315.412 322.204 314.632 321.892C313.852 321.58 313.237 321.112 312.786 320.488C312.335 319.864 312.11 319.084 312.11 318.148C312.11 317.299 312.301 316.553 312.682 315.912C313.063 315.271 313.635 314.768 314.398 314.404C315.161 314.04 316.079 313.858 317.154 313.858C318.125 313.858 318.948 313.997 319.624 314.274C320.317 314.551 320.881 314.915 321.314 315.366C321.747 315.799 322.059 316.267 322.25 316.77C322.458 317.273 322.562 317.732 322.562 318.148C322.562 318.945 322.363 319.665 321.964 320.306C321.583 320.93 321.002 321.433 320.222 321.814C319.442 322.178 318.471 322.36 317.31 322.36ZM317.622 320.982C318.159 320.982 318.584 320.757 318.896 320.306C319.225 319.855 319.39 319.197 319.39 318.33C319.39 317.411 319.191 316.657 318.792 316.068C318.393 315.461 317.839 315.158 317.128 315.158C316.504 315.158 316.045 315.418 315.75 315.938C315.455 316.458 315.308 317.082 315.308 317.81C315.308 318.833 315.507 319.621 315.906 320.176C316.322 320.713 316.894 320.982 317.622 320.982ZM323.914 315.938C323.619 315.851 323.29 315.773 322.926 315.704C322.579 315.635 322.233 315.574 321.886 315.522C321.539 315.47 321.227 315.435 320.95 315.418L318.74 314.092H323.68C323.767 314.335 323.827 314.621 323.862 314.95C323.897 315.262 323.914 315.591 323.914 315.938Z" fill="#00413D"/>
<defs>
<filter id="filter0_d_403_496" x="0" y="0" width="470" height="482" filterUnits="userSpaceOnUse" color-interpolation-filters="sRGB">
<feFlood flood-opacity="0" result="BackgroundImageFix"/>
<feColorMatrix in="SourceAlpha" type="matrix" values="0 0 0 0 0 0 0 0 0 0 0 0 0 0 0 0 0 0 127 0" result="hardAlpha"/>
<feOffset dy="20"/>
<feGaussianBlur stdDeviation="50"/>
<feComposite in2="hardAlpha" operator="out"/>
<feColorMatrix type="matrix" values="0 0 0 0 0 0 0 0 0 0.254902 0 0 0 0 0.239216 0 0 0 0.06 0"/>
<feBlend mode="normal" in2="BackgroundImageFix" result="effect1_dropShadow_403_496"/>
<feBlend mode="normal" in="SourceGraphic" in2="effect1_dropShadow_403_496" result="shape"/>
</filter>
<clipPath id="clip0_403_496">
<rect width="167" height="167" fill="white" transform="translate(152 110)"/>
</clipPath>
</defs>
</svg>
