<svg width="470" height="482" viewBox="0 0 470 482" fill="none" xmlns="http://www.w3.org/2000/svg">
<g filter="url(#filter0_d_403_506)">
<rect x="100" y="80" width="270" height="282" fill="white"/>
</g>
<g clip-path="url(#clip0_403_506)">
<g opacity="0.3">
<path d="M235.5 277C189.456 277 152 239.544 152 193.5C152 147.456 189.456 110 235.5 110C281.544 110 319 147.456 319 193.5C319 239.544 281.544 277 235.5 277ZM235.5 119.801C194.89 119.801 161.801 152.842 161.801 193.5C161.801 234.11 194.842 267.199 235.5 267.199C276.158 267.199 309.199 234.158 309.199 193.5C309.199 152.89 276.11 119.801 235.5 119.801Z" fill="#C4C4C4"/>
</g>
<path d="M235.5 277C189.456 277 152 239.544 152 193.5C152 147.456 189.456 110 235.5 110C238.217 110 240.4 112.183 240.4 114.9C240.4 117.617 238.217 119.801 235.5 119.801C194.89 119.801 161.801 152.842 161.801 193.5C161.801 234.11 194.842 267.199 235.5 267.199C256.46 267.199 276.498 258.223 290.471 242.601C292.266 240.563 295.372 240.417 297.409 242.212C299.447 244.008 299.593 247.113 297.798 249.15C281.981 266.811 259.274 277 235.5 277Z" fill="#E5745D"/>
</g>
<path d="M215.382 180.308C215.518 180.467 215.62 180.671 215.688 180.92C215.756 181.169 215.779 181.475 215.756 181.838C213.625 182.269 211.869 182.949 210.486 183.878C209.126 184.807 208.117 186.077 207.46 187.686C206.803 189.273 206.474 191.29 206.474 193.738C206.474 194.962 206.599 195.993 206.848 196.832C207.12 197.671 207.449 198.351 207.834 198.872C208.242 199.371 208.673 199.733 209.126 199.96C209.579 200.164 209.999 200.266 210.384 200.266C211.177 200.266 211.812 200.062 212.288 199.654C212.764 199.246 213.115 198.713 213.342 198.056C213.591 197.376 213.716 196.673 213.716 195.948C213.716 194.679 213.489 193.67 213.036 192.922C212.583 192.174 212.027 191.641 211.37 191.324C210.713 190.984 210.067 190.814 209.432 190.814C208.888 190.814 208.31 190.916 207.698 191.12C207.086 191.301 206.451 191.63 205.794 192.106L205.692 190.644C206.757 189.919 207.721 189.397 208.582 189.08C209.466 188.74 210.373 188.57 211.302 188.57C213.319 188.57 214.917 189.114 216.096 190.202C217.275 191.29 217.864 192.82 217.864 194.792C217.864 196.039 217.637 197.127 217.184 198.056C216.753 198.985 216.164 199.767 215.416 200.402C214.691 201.037 213.875 201.513 212.968 201.83C212.061 202.147 211.121 202.306 210.146 202.306C208.469 202.306 207.029 202 205.828 201.388C204.649 200.776 203.743 199.847 203.108 198.6C202.496 197.353 202.19 195.767 202.19 193.84C202.19 191.823 202.473 190.066 203.04 188.57C203.607 187.074 204.355 185.816 205.284 184.796C206.236 183.753 207.29 182.915 208.446 182.28C209.602 181.623 210.781 181.147 211.982 180.852C213.183 180.535 214.317 180.353 215.382 180.308ZM228.718 186.802C227.811 186.802 227.04 187.074 226.406 187.618C225.794 188.139 225.318 188.842 224.978 189.726C224.66 190.61 224.502 191.596 224.502 192.684C224.502 193.5 224.626 194.35 224.876 195.234C225.148 196.095 225.533 196.9 226.032 197.648C226.553 198.373 227.165 198.963 227.868 199.416C228.593 199.869 229.409 200.096 230.316 200.096C231.268 200.096 232.038 199.824 232.628 199.28C233.217 198.736 233.648 198.011 233.92 197.104C234.192 196.197 234.328 195.223 234.328 194.18C234.328 193.409 234.203 192.605 233.954 191.766C233.727 190.905 233.364 190.1 232.866 189.352C232.39 188.581 231.8 187.969 231.098 187.516C230.418 187.04 229.624 186.802 228.718 186.802ZM229.602 184.796C231.211 184.796 232.696 185.125 234.056 185.782C235.438 186.439 236.538 187.403 237.354 188.672C238.17 189.941 238.578 191.494 238.578 193.33C238.578 195.166 238.17 196.764 237.354 198.124C236.538 199.461 235.45 200.493 234.09 201.218C232.73 201.943 231.234 202.306 229.602 202.306C227.924 202.306 226.383 201.943 224.978 201.218C223.572 200.493 222.45 199.461 221.612 198.124C220.773 196.764 220.354 195.166 220.354 193.33C220.354 191.947 220.603 190.723 221.102 189.658C221.623 188.593 222.326 187.697 223.21 186.972C224.094 186.247 225.08 185.703 226.168 185.34C227.278 184.977 228.423 184.796 229.602 184.796ZM246.07 202.238C245.662 202.125 245.31 201.955 245.016 201.728C244.721 201.479 244.517 201.229 244.404 200.98L263.104 178.676C263.466 178.721 263.806 178.835 264.124 179.016C264.441 179.175 264.713 179.39 264.94 179.662L246.07 202.238ZM248.212 189.794C247.01 189.794 246.013 189.545 245.22 189.046C244.449 188.525 243.86 187.867 243.452 187.074C243.044 186.281 242.84 185.453 242.84 184.592C242.84 183.617 243.055 182.711 243.486 181.872C243.916 181.011 244.551 180.319 245.39 179.798C246.228 179.254 247.282 178.982 248.552 178.982C249.685 178.982 250.626 179.243 251.374 179.764C252.122 180.263 252.677 180.909 253.04 181.702C253.425 182.495 253.618 183.3 253.618 184.116C253.618 185.136 253.402 186.077 252.972 186.938C252.564 187.799 251.963 188.491 251.17 189.012C250.376 189.533 249.39 189.794 248.212 189.794ZM248.45 187.992C248.948 187.992 249.424 187.709 249.878 187.142C250.354 186.553 250.592 185.691 250.592 184.558C250.592 183.447 250.354 182.541 249.878 181.838C249.424 181.113 248.835 180.75 248.11 180.75C247.52 180.75 246.999 181.079 246.546 181.736C246.115 182.371 245.9 183.175 245.9 184.15C245.9 185.283 246.126 186.213 246.58 186.938C247.056 187.641 247.679 187.992 248.45 187.992ZM260.792 202.272C259.59 202.272 258.593 202.023 257.8 201.524C257.029 201.003 256.44 200.345 256.032 199.552C255.624 198.759 255.42 197.931 255.42 197.07C255.42 196.095 255.635 195.189 256.066 194.35C256.496 193.489 257.131 192.797 257.97 192.276C258.831 191.732 259.885 191.46 261.132 191.46C262.265 191.46 263.194 191.721 263.92 192.242C264.668 192.741 265.234 193.387 265.62 194.18C266.005 194.973 266.198 195.778 266.198 196.594C266.198 197.614 265.982 198.555 265.552 199.416C265.144 200.277 264.543 200.969 263.75 201.49C262.956 202.011 261.97 202.272 260.792 202.272ZM261.03 200.47C261.528 200.47 262.004 200.187 262.458 199.62C262.934 199.031 263.172 198.169 263.172 197.036C263.172 195.925 262.934 195.019 262.458 194.316C262.004 193.591 261.415 193.228 260.69 193.228C260.1 193.228 259.579 193.557 259.126 194.214C258.695 194.849 258.48 195.653 258.48 196.628C258.48 197.761 258.706 198.691 259.16 199.416C259.636 200.119 260.259 200.47 261.03 200.47Z" fill="#E5745D"/>
<path d="M155.248 308.346C155.595 308.363 156.019 308.381 156.522 308.398C157.042 308.415 157.536 308.424 158.004 308.424C158.437 308.424 158.905 308.424 159.408 308.424C159.928 308.407 160.448 308.398 160.968 308.398C161.505 308.381 161.991 308.372 162.424 308.372C163.707 308.372 164.799 308.493 165.7 308.736C166.619 308.979 167.321 309.377 167.806 309.932C168.291 310.487 168.534 311.258 168.534 312.246C168.534 313.321 168.187 314.248 167.494 315.028C166.818 315.791 165.865 316.259 164.634 316.432C165.657 316.484 166.549 316.675 167.312 317.004C168.075 317.316 168.664 317.793 169.08 318.434C169.513 319.075 169.73 319.899 169.73 320.904C169.73 321.857 169.496 322.724 169.028 323.504C168.577 324.267 167.849 324.873 166.844 325.324C165.839 325.775 164.513 326 162.866 326C162.277 326 161.635 326 160.942 326C160.249 326 159.547 326 158.836 326C158.125 326.017 157.458 326.026 156.834 326.026C156.21 326.043 155.681 326.061 155.248 326.078C155.248 325.783 155.257 325.523 155.274 325.298C155.291 325.055 155.335 324.847 155.404 324.674C155.872 324.639 156.227 324.553 156.47 324.414C156.73 324.258 156.912 323.998 157.016 323.634C157.12 323.253 157.172 322.707 157.172 321.996V312.22C157.172 311.561 157.12 311.067 157.016 310.738C156.929 310.409 156.756 310.175 156.496 310.036C156.236 309.88 155.872 309.785 155.404 309.75C155.352 309.577 155.309 309.36 155.274 309.1C155.257 308.823 155.248 308.571 155.248 308.346ZM160.5 309.36V322.074C160.5 322.802 160.569 323.348 160.708 323.712C160.864 324.076 161.107 324.319 161.436 324.44C161.765 324.561 162.199 324.622 162.736 324.622C163.811 324.622 164.625 324.327 165.18 323.738C165.735 323.131 166.012 322.299 166.012 321.242C166.012 320.497 165.873 319.881 165.596 319.396C165.319 318.911 164.946 318.538 164.478 318.278C164.027 318.018 163.507 317.836 162.918 317.732C162.346 317.611 161.748 317.55 161.124 317.55H159.954V316.172H161.358C162.311 316.172 163.048 316.033 163.568 315.756C164.105 315.479 164.487 315.097 164.712 314.612C164.937 314.127 165.05 313.589 165.05 313C165.05 312.203 164.877 311.57 164.53 311.102C164.183 310.634 163.75 310.305 163.23 310.114C162.71 309.906 162.173 309.802 161.618 309.802C161.358 309.802 161.115 309.819 160.89 309.854C160.682 309.889 160.431 309.958 160.136 310.062L160.5 309.36ZM176.993 321.762C176.993 322.507 177.071 323.088 177.227 323.504C177.383 323.903 177.643 324.189 178.007 324.362C178.388 324.518 178.874 324.622 179.463 324.674C179.532 324.847 179.576 325.055 179.593 325.298C179.61 325.541 179.619 325.801 179.619 326.078C179.342 326.061 178.995 326.043 178.579 326.026C178.18 326.026 177.747 326.017 177.279 326C176.828 326 176.369 326 175.901 326C175.19 326 174.445 326 173.665 326C172.902 326.017 172.304 326.043 171.871 326.078C171.871 325.766 171.88 325.497 171.897 325.272C171.932 325.047 171.975 324.847 172.027 324.674C172.495 324.639 172.859 324.553 173.119 324.414C173.379 324.275 173.552 324.033 173.639 323.686C173.743 323.339 173.795 322.845 173.795 322.204V320.098H176.993V321.762ZM176.993 318.356V320.514H173.795V317.654L176.993 315.158C176.993 315.661 176.941 316.137 176.837 316.588C176.733 317.039 176.629 317.541 176.525 318.096L176.993 318.356ZM176.421 318.226C176.577 317.793 176.716 317.394 176.837 317.03C176.976 316.666 177.106 316.38 177.227 316.172C177.608 315.565 178.068 315.063 178.605 314.664C179.142 314.265 179.749 314.066 180.425 314.066C181.101 314.066 181.716 314.274 182.271 314.69C182.219 315.002 182.176 315.366 182.141 315.782C182.106 316.198 182.08 316.614 182.063 317.03C182.046 317.446 182.046 317.827 182.063 318.174C181.855 318.261 181.569 318.33 181.205 318.382C180.841 318.434 180.494 318.46 180.165 318.46C180.148 317.715 180.035 317.212 179.827 316.952C179.619 316.692 179.342 316.562 178.995 316.562C178.718 316.562 178.423 316.718 178.111 317.03C177.799 317.342 177.53 317.758 177.305 318.278C177.097 318.781 176.993 319.344 176.993 319.968L176.421 318.226ZM173.795 320.514V318.018C173.795 317.55 173.752 317.177 173.665 316.9C173.596 316.623 173.422 316.415 173.145 316.276C172.885 316.137 172.469 316.051 171.897 316.016C171.897 315.773 171.914 315.548 171.949 315.34C171.984 315.115 172.053 314.915 172.157 314.742C172.937 314.707 173.717 314.603 174.497 314.43C175.294 314.257 175.901 314.066 176.317 313.858C176.508 313.927 176.664 314.066 176.785 314.274C176.924 314.465 176.993 314.759 176.993 315.158L173.795 320.514ZM191.998 326.234C191.738 326.13 191.548 325.965 191.426 325.74C191.305 325.497 191.244 325.159 191.244 324.726C191.244 324.535 191.262 324.31 191.296 324.05C191.331 323.79 191.383 323.547 191.452 323.322L191.53 323.27C191.426 323.651 191.27 324.024 191.062 324.388C190.854 324.735 190.603 325.029 190.308 325.272C189.979 325.549 189.572 325.775 189.086 325.948C188.601 326.104 188.038 326.182 187.396 326.182C186.252 326.182 185.368 325.931 184.744 325.428C184.138 324.925 183.834 324.223 183.834 323.322C183.834 322.663 183.99 322.1 184.302 321.632C184.614 321.147 185.03 320.739 185.55 320.41C186.07 320.081 186.634 319.821 187.24 319.63C187.864 319.422 188.488 319.266 189.112 319.162C189.754 319.041 190.343 318.937 190.88 318.85C190.88 318.261 190.863 317.793 190.828 317.446C190.811 317.082 190.759 316.787 190.672 316.562C190.603 316.319 190.482 316.111 190.308 315.938C190.118 315.695 189.892 315.522 189.632 315.418C189.372 315.297 189.095 315.236 188.8 315.236C188.28 315.236 187.864 315.392 187.552 315.704C187.258 316.016 187.041 316.406 186.902 316.874C186.764 317.325 186.677 317.758 186.642 318.174C186.313 318.174 185.984 318.165 185.654 318.148C185.325 318.113 185.048 318.053 184.822 317.966C184.857 317.498 184.866 316.995 184.848 316.458C184.831 315.921 184.77 315.418 184.666 314.95C185.394 314.603 186.2 314.335 187.084 314.144C187.968 313.953 188.792 313.858 189.554 313.858C190.421 313.858 191.123 313.962 191.66 314.17C192.215 314.378 192.64 314.638 192.934 314.95C193.333 315.349 193.619 315.886 193.792 316.562C193.966 317.221 194.052 318.148 194.052 319.344V321.84C194.052 322.36 194.087 322.776 194.156 323.088C194.243 323.383 194.39 323.591 194.598 323.712C194.824 323.833 195.162 323.903 195.612 323.92C195.647 324.163 195.647 324.414 195.612 324.674C195.595 324.934 195.534 325.177 195.43 325.402C194.876 325.419 194.286 325.506 193.662 325.662C193.056 325.801 192.501 325.991 191.998 326.234ZM188.462 324.31C188.826 324.31 189.19 324.189 189.554 323.946C189.936 323.703 190.248 323.339 190.49 322.854C190.75 322.351 190.88 321.71 190.88 320.93V320.124C190.395 320.193 189.918 320.289 189.45 320.41C189 320.514 188.592 320.661 188.228 320.852C187.882 321.025 187.604 321.259 187.396 321.554C187.188 321.849 187.084 322.23 187.084 322.698C187.084 323.253 187.223 323.66 187.5 323.92C187.778 324.18 188.098 324.31 188.462 324.31ZM199.287 320.514V318.018C199.287 317.55 199.244 317.177 199.157 316.9C199.088 316.623 198.914 316.415 198.637 316.276C198.377 316.137 197.961 316.051 197.389 316.016C197.389 315.773 197.406 315.548 197.441 315.34C197.476 315.115 197.545 314.915 197.649 314.742C198.429 314.707 199.209 314.603 199.989 314.43C200.786 314.257 201.393 314.066 201.809 313.858C202 313.927 202.156 314.066 202.277 314.274C202.416 314.465 202.485 314.759 202.485 315.158L199.287 320.514ZM210.493 322.412C210.493 323.296 210.606 323.894 210.831 324.206C211.056 324.518 211.412 324.674 211.897 324.674C211.984 324.865 212.036 325.073 212.053 325.298C212.07 325.506 212.079 325.766 212.079 326.078C211.698 326.043 211.23 326.017 210.675 326C210.12 326 209.566 326 209.011 326C208.647 326 208.24 326 207.789 326C207.356 326.017 206.94 326.026 206.541 326.026C206.142 326.043 205.804 326.061 205.527 326.078C205.527 325.801 205.536 325.549 205.553 325.324C205.588 325.081 205.64 324.865 205.709 324.674C206.246 324.674 206.645 324.509 206.905 324.18C207.182 323.833 207.321 323.209 207.321 322.308V319.058C207.321 317.897 207.122 317.108 206.723 316.692C206.342 316.259 205.822 316.042 205.163 316.042C204.73 316.042 204.305 316.198 203.889 316.51C203.473 316.805 203.135 317.264 202.875 317.888C202.615 318.512 202.485 319.309 202.485 320.28V322.412C202.485 323.279 202.606 323.877 202.849 324.206C203.092 324.518 203.508 324.674 204.097 324.674C204.166 324.882 204.21 325.099 204.227 325.324C204.244 325.532 204.253 325.783 204.253 326.078C204.01 326.061 203.698 326.043 203.317 326.026C202.936 326.026 202.528 326.017 202.095 326C201.679 326 201.272 326 200.873 326C200.509 326 200.102 326 199.651 326C199.2 326.017 198.767 326.026 198.351 326.026C197.952 326.043 197.623 326.061 197.363 326.078C197.363 325.783 197.372 325.515 197.389 325.272C197.424 325.029 197.476 324.83 197.545 324.674C198.221 324.674 198.68 324.518 198.923 324.206C199.166 323.877 199.287 323.279 199.287 322.412V318.018L202.485 315.158C202.485 315.366 202.468 315.609 202.433 315.886C202.398 316.146 202.338 316.423 202.251 316.718C202.338 316.545 202.416 316.371 202.485 316.198C202.572 316.025 202.693 315.86 202.849 315.704C203.178 315.305 203.655 314.924 204.279 314.56C204.92 314.179 205.674 313.988 206.541 313.988C207.234 313.988 207.884 314.127 208.491 314.404C209.098 314.681 209.583 315.132 209.947 315.756C210.311 316.363 210.493 317.186 210.493 318.226V322.412ZM220.529 313.858C220.962 313.858 221.352 313.893 221.699 313.962C222.046 314.031 222.427 314.127 222.843 314.248V316.51C222.514 316.129 222.167 315.825 221.803 315.6C221.439 315.375 220.988 315.262 220.451 315.262C220.104 315.262 219.732 315.331 219.333 315.47C218.952 315.609 218.579 315.851 218.215 316.198C217.868 316.545 217.574 317.039 217.331 317.68C217.106 318.321 216.993 319.145 216.993 320.15C216.993 321.086 217.123 321.857 217.383 322.464C217.643 323.071 217.972 323.53 218.371 323.842C218.787 324.154 219.203 324.31 219.619 324.31C220.104 324.31 220.564 324.163 220.997 323.868C221.43 323.556 221.786 323.062 222.063 322.386C222.358 321.71 222.505 320.809 222.505 319.682L223.441 322.386C223.181 323.01 222.938 323.495 222.713 323.842C222.505 324.171 222.323 324.423 222.167 324.596C221.994 324.821 221.734 325.064 221.387 325.324C221.058 325.567 220.659 325.783 220.191 325.974C219.74 326.147 219.238 326.234 218.683 326.234C217.678 326.234 216.794 326.043 216.031 325.662C215.286 325.263 214.705 324.657 214.289 323.842C213.873 323.01 213.665 321.935 213.665 320.618C213.665 319.335 213.951 318.191 214.523 317.186C215.095 316.163 215.892 315.357 216.915 314.768C217.938 314.161 219.142 313.858 220.529 313.858ZM225.703 321.97C225.703 322.455 225.738 322.845 225.807 323.14C225.876 323.417 226.024 323.617 226.249 323.738C226.474 323.859 226.812 323.92 227.263 323.92C227.28 324.163 227.272 324.414 227.237 324.674C227.22 324.934 227.159 325.177 227.055 325.402C226.5 325.419 225.902 325.506 225.261 325.662C224.62 325.801 224.048 325.991 223.545 326.234C223.302 326.13 223.112 325.983 222.973 325.792C222.852 325.601 222.791 325.246 222.791 324.726C222.791 324.379 222.826 324.05 222.895 323.738C222.964 323.426 223.06 323.01 223.181 322.49L225.703 321.97ZM225.703 311.128V322.646H222.505V311.128H225.703ZM225.027 307.358C225.218 307.427 225.374 307.557 225.495 307.748C225.634 307.939 225.703 308.225 225.703 308.606V312.038H222.505V311.362C222.505 310.946 222.462 310.608 222.375 310.348C222.306 310.088 222.132 309.889 221.855 309.75C221.578 309.611 221.153 309.533 220.581 309.516C220.581 309.273 220.598 309.048 220.633 308.84C220.668 308.615 220.737 308.415 220.841 308.242C221.292 308.242 221.794 308.199 222.349 308.112C222.921 308.025 223.45 307.913 223.935 307.774C224.42 307.635 224.784 307.497 225.027 307.358ZM234.543 326.078C234.543 325.783 234.552 325.523 234.569 325.298C234.586 325.055 234.63 324.847 234.699 324.674C235.167 324.639 235.522 324.553 235.765 324.414C236.025 324.258 236.207 323.998 236.311 323.634C236.415 323.253 236.467 322.707 236.467 321.996V312.22C236.467 311.561 236.415 311.067 236.311 310.738C236.224 310.409 236.051 310.175 235.791 310.036C235.531 309.88 235.167 309.785 234.699 309.75C234.647 309.577 234.604 309.36 234.569 309.1C234.552 308.823 234.543 308.571 234.543 308.346C234.872 308.363 235.28 308.381 235.765 308.398C236.25 308.398 236.753 308.407 237.273 308.424C237.81 308.424 238.313 308.424 238.781 308.424C239.232 308.424 239.7 308.415 240.185 308.398C240.688 308.381 241.199 308.372 241.719 308.372C242.672 308.372 243.617 308.441 244.553 308.58C245.489 308.701 246.364 308.935 247.179 309.282C248.011 309.611 248.748 310.097 249.389 310.738C250.03 311.362 250.533 312.168 250.897 313.156C251.261 314.127 251.443 315.331 251.443 316.77C251.443 318.174 251.27 319.379 250.923 320.384C250.576 321.389 250.117 322.23 249.545 322.906C248.973 323.582 248.332 324.128 247.621 324.544C246.91 324.96 246.191 325.272 245.463 325.48C244.735 325.688 244.042 325.827 243.383 325.896C242.724 325.965 242.161 326 241.693 326C241.208 326 240.627 326 239.951 326C239.275 326 238.582 326 237.871 326C237.16 326.017 236.502 326.026 235.895 326.026C235.306 326.043 234.855 326.061 234.543 326.078ZM242.057 324.57C242.82 324.57 243.548 324.466 244.241 324.258C244.952 324.05 245.584 323.677 246.139 323.14C246.694 322.603 247.127 321.857 247.439 320.904C247.768 319.933 247.933 318.694 247.933 317.186C247.933 315.782 247.751 314.603 247.387 313.65C247.023 312.679 246.538 311.908 245.931 311.336C245.324 310.747 244.631 310.322 243.851 310.062C243.071 309.802 242.265 309.672 241.433 309.672C241.086 309.672 240.714 309.707 240.315 309.776C239.934 309.845 239.674 309.932 239.535 310.036L239.795 309.204V321.97C239.795 322.663 239.856 323.201 239.977 323.582C240.098 323.946 240.324 324.206 240.653 324.362C240.982 324.501 241.45 324.57 242.057 324.57ZM259.279 326.234C257.91 326.234 256.783 325.965 255.899 325.428C255.033 324.873 254.383 324.128 253.949 323.192C253.533 322.256 253.325 321.225 253.325 320.098C253.325 318.902 253.559 317.836 254.027 316.9C254.495 315.964 255.163 315.227 256.029 314.69C256.896 314.135 257.919 313.858 259.097 313.858C260.293 313.858 261.264 314.101 262.009 314.586C262.755 315.054 263.309 315.704 263.673 316.536C264.055 317.368 264.271 318.304 264.323 319.344C264.219 319.777 264.037 320.141 263.777 320.436C263.396 320.436 262.893 320.436 262.269 320.436C261.663 320.436 260.995 320.445 260.267 320.462C259.539 320.462 258.794 320.479 258.031 320.514C257.286 320.549 256.575 320.583 255.899 320.618V319.058H261.099C261.099 317.897 260.917 316.987 260.553 316.328C260.189 315.652 259.661 315.314 258.967 315.314C258.551 315.314 258.161 315.453 257.797 315.73C257.451 315.99 257.165 316.423 256.939 317.03C256.731 317.619 256.627 318.425 256.627 319.448C256.627 320.332 256.731 321.155 256.939 321.918C257.165 322.681 257.546 323.296 258.083 323.764C258.621 324.232 259.366 324.466 260.319 324.466C260.909 324.466 261.489 324.353 262.061 324.128C262.633 323.885 263.127 323.556 263.543 323.14C263.699 323.227 263.847 323.383 263.985 323.608C264.124 323.833 264.193 324.05 264.193 324.258C263.569 324.951 262.85 325.454 262.035 325.766C261.238 326.078 260.319 326.234 259.279 326.234ZM275.063 314.716C275.046 315.149 275.037 315.6 275.037 316.068C275.037 316.536 275.072 316.995 275.141 317.446C274.933 317.585 274.673 317.689 274.361 317.758C274.066 317.827 273.754 317.862 273.425 317.862C273.39 317.394 273.26 316.961 273.035 316.562C272.827 316.163 272.532 315.843 272.151 315.6C271.77 315.357 271.31 315.236 270.773 315.236C270.322 315.236 269.958 315.349 269.681 315.574C269.421 315.799 269.291 316.094 269.291 316.458C269.291 316.718 269.352 316.961 269.473 317.186C269.594 317.394 269.863 317.619 270.279 317.862C270.695 318.105 271.345 318.399 272.229 318.746C273.182 319.11 273.936 319.474 274.491 319.838C275.046 320.185 275.436 320.575 275.661 321.008C275.886 321.441 275.999 321.953 275.999 322.542C275.999 323.305 275.782 323.963 275.349 324.518C274.916 325.073 274.309 325.497 273.529 325.792C272.749 326.087 271.848 326.234 270.825 326.234C269.768 326.234 268.901 326.156 268.225 326C267.566 325.844 266.925 325.61 266.301 325.298C266.336 325.003 266.353 324.657 266.353 324.258C266.37 323.859 266.379 323.469 266.379 323.088C266.379 322.689 266.362 322.351 266.327 322.074C266.518 321.953 266.778 321.866 267.107 321.814C267.454 321.745 267.783 321.71 268.095 321.71C268.216 322.715 268.52 323.469 269.005 323.972C269.49 324.475 270.123 324.726 270.903 324.726C271.51 324.726 271.978 324.596 272.307 324.336C272.654 324.076 272.827 323.729 272.827 323.296C272.827 323.019 272.758 322.776 272.619 322.568C272.48 322.343 272.22 322.126 271.839 321.918C271.475 321.693 270.929 321.441 270.201 321.164C269.352 320.817 268.641 320.479 268.069 320.15C267.514 319.821 267.098 319.422 266.821 318.954C266.544 318.486 266.405 317.897 266.405 317.186C266.405 316.614 266.535 316.12 266.795 315.704C267.072 315.288 267.436 314.941 267.887 314.664C268.338 314.387 268.84 314.187 269.395 314.066C269.95 313.927 270.504 313.858 271.059 313.858C271.926 313.858 272.671 313.936 273.295 314.092C273.919 314.231 274.508 314.439 275.063 314.716ZM277.699 326.078C277.699 325.818 277.708 325.567 277.725 325.324C277.76 325.081 277.812 324.865 277.881 324.674C278.574 324.657 279.034 324.492 279.259 324.18C279.502 323.868 279.623 323.279 279.623 322.412V317.862C279.623 317.446 279.58 317.108 279.493 316.848C279.406 316.588 279.224 316.389 278.947 316.25C278.67 316.111 278.254 316.033 277.699 316.016C277.699 315.773 277.716 315.548 277.751 315.34C277.786 315.115 277.855 314.915 277.959 314.742C278.41 314.742 278.912 314.699 279.467 314.612C280.039 314.525 280.568 314.413 281.053 314.274C281.538 314.135 281.894 313.997 282.119 313.858C282.327 313.927 282.492 314.057 282.613 314.248C282.752 314.439 282.821 314.725 282.821 315.106V322.412C282.821 323.279 282.934 323.868 283.159 324.18C283.384 324.492 283.8 324.657 284.407 324.674C284.476 324.865 284.52 325.09 284.537 325.35C284.554 325.61 284.563 325.853 284.563 326.078C284.286 326.061 283.956 326.043 283.575 326.026C283.211 326.026 282.821 326.017 282.405 326C281.989 326 281.573 326 281.157 326C280.741 326 280.316 326 279.883 326C279.45 326.017 279.042 326.026 278.661 326.026C278.297 326.043 277.976 326.061 277.699 326.078ZM280.949 311.466C280.394 311.466 279.935 311.31 279.571 310.998C279.224 310.669 279.051 310.261 279.051 309.776C279.051 309.204 279.242 308.762 279.623 308.45C280.004 308.121 280.464 307.956 281.001 307.956C281.608 307.956 282.084 308.121 282.431 308.45C282.795 308.762 282.977 309.195 282.977 309.75C282.977 310.218 282.786 310.625 282.405 310.972C282.024 311.301 281.538 311.466 280.949 311.466ZM291.141 332.474C289.963 332.474 289.018 332.335 288.307 332.058C287.614 331.798 287.111 331.417 286.799 330.914C286.487 330.411 286.331 329.822 286.331 329.146C286.331 328.487 286.513 327.915 286.877 327.43C287.259 326.945 287.805 326.581 288.515 326.338L290.075 326.546C289.677 326.875 289.408 327.179 289.269 327.456C289.131 327.751 289.061 328.097 289.061 328.496C289.061 329.293 289.269 329.891 289.685 330.29C290.119 330.689 290.847 330.888 291.869 330.888C292.996 330.888 293.871 330.645 294.495 330.16C295.137 329.675 295.457 329.103 295.457 328.444C295.457 328.08 295.362 327.794 295.171 327.586C294.981 327.378 294.625 327.222 294.105 327.118C293.585 327.031 292.823 326.988 291.817 326.988C291.055 326.971 290.379 326.927 289.789 326.858C289.2 326.789 288.697 326.659 288.281 326.468C287.883 326.277 287.579 326.017 287.371 325.688C287.163 325.359 287.059 324.925 287.059 324.388C287.059 323.729 287.241 323.14 287.605 322.62C287.969 322.083 288.403 321.615 288.905 321.216L290.361 321.866C290.067 322.074 289.841 322.291 289.685 322.516C289.547 322.724 289.477 322.923 289.477 323.114C289.477 323.426 289.599 323.651 289.841 323.79C290.084 323.929 290.491 324.015 291.063 324.05C291.653 324.085 292.441 324.102 293.429 324.102C294.504 324.102 295.397 324.197 296.107 324.388C296.835 324.561 297.373 324.865 297.719 325.298C298.083 325.731 298.265 326.347 298.265 327.144C298.265 327.82 298.092 328.47 297.745 329.094C297.399 329.735 296.913 330.307 296.289 330.81C295.665 331.313 294.911 331.711 294.027 332.006C293.161 332.318 292.199 332.474 291.141 332.474ZM291.921 322.36C290.916 322.36 290.023 322.204 289.243 321.892C288.463 321.58 287.848 321.112 287.397 320.488C286.947 319.864 286.721 319.084 286.721 318.148C286.721 317.299 286.912 316.553 287.293 315.912C287.675 315.271 288.247 314.768 289.009 314.404C289.772 314.04 290.691 313.858 291.765 313.858C292.736 313.858 293.559 313.997 294.235 314.274C294.929 314.551 295.492 314.915 295.925 315.366C296.359 315.799 296.671 316.267 296.861 316.77C297.069 317.273 297.173 317.732 297.173 318.148C297.173 318.945 296.974 319.665 296.575 320.306C296.194 320.93 295.613 321.433 294.833 321.814C294.053 322.178 293.083 322.36 291.921 322.36ZM292.233 320.982C292.771 320.982 293.195 320.757 293.507 320.306C293.837 319.855 294.001 319.197 294.001 318.33C294.001 317.411 293.802 316.657 293.403 316.068C293.005 315.461 292.45 315.158 291.739 315.158C291.115 315.158 290.656 315.418 290.361 315.938C290.067 316.458 289.919 317.082 289.919 317.81C289.919 318.833 290.119 319.621 290.517 320.176C290.933 320.713 291.505 320.982 292.233 320.982ZM298.525 315.938C298.231 315.851 297.901 315.773 297.537 315.704C297.191 315.635 296.844 315.574 296.497 315.522C296.151 315.47 295.839 315.435 295.561 315.418L293.351 314.092H298.291C298.378 314.335 298.439 314.621 298.473 314.95C298.508 315.262 298.525 315.591 298.525 315.938ZM302.195 320.514V318.018C302.195 317.55 302.152 317.177 302.065 316.9C301.996 316.623 301.823 316.415 301.545 316.276C301.285 316.137 300.869 316.051 300.297 316.016C300.297 315.773 300.315 315.548 300.349 315.34C300.384 315.115 300.453 314.915 300.557 314.742C301.337 314.707 302.117 314.603 302.897 314.43C303.695 314.257 304.301 314.066 304.717 313.858C304.908 313.927 305.064 314.066 305.185 314.274C305.324 314.465 305.393 314.759 305.393 315.158L302.195 320.514ZM313.401 322.412C313.401 323.296 313.514 323.894 313.739 324.206C313.965 324.518 314.32 324.674 314.805 324.674C314.892 324.865 314.944 325.073 314.961 325.298C314.979 325.506 314.987 325.766 314.987 326.078C314.606 326.043 314.138 326.017 313.583 326C313.029 326 312.474 326 311.919 326C311.555 326 311.148 326 310.697 326C310.264 326.017 309.848 326.026 309.449 326.026C309.051 326.043 308.713 326.061 308.435 326.078C308.435 325.801 308.444 325.549 308.461 325.324C308.496 325.081 308.548 324.865 308.617 324.674C309.155 324.674 309.553 324.509 309.813 324.18C310.091 323.833 310.229 323.209 310.229 322.308V319.058C310.229 317.897 310.03 317.108 309.631 316.692C309.25 316.259 308.73 316.042 308.071 316.042C307.638 316.042 307.213 316.198 306.797 316.51C306.381 316.805 306.043 317.264 305.783 317.888C305.523 318.512 305.393 319.309 305.393 320.28V322.412C305.393 323.279 305.515 323.877 305.757 324.206C306 324.518 306.416 324.674 307.005 324.674C307.075 324.882 307.118 325.099 307.135 325.324C307.153 325.532 307.161 325.783 307.161 326.078C306.919 326.061 306.607 326.043 306.225 326.026C305.844 326.026 305.437 326.017 305.003 326C304.587 326 304.18 326 303.781 326C303.417 326 303.01 326 302.559 326C302.109 326.017 301.675 326.026 301.259 326.026C300.861 326.043 300.531 326.061 300.271 326.078C300.271 325.783 300.28 325.515 300.297 325.272C300.332 325.029 300.384 324.83 300.453 324.674C301.129 324.674 301.589 324.518 301.831 324.206C302.074 323.877 302.195 323.279 302.195 322.412V318.018L305.393 315.158C305.393 315.366 305.376 315.609 305.341 315.886C305.307 316.146 305.246 316.423 305.159 316.718C305.246 316.545 305.324 316.371 305.393 316.198C305.48 316.025 305.601 315.86 305.757 315.704C306.087 315.305 306.563 314.924 307.187 314.56C307.829 314.179 308.583 313.988 309.449 313.988C310.143 313.988 310.793 314.127 311.399 314.404C312.006 314.681 312.491 315.132 312.855 315.756C313.219 316.363 313.401 317.186 313.401 318.226V322.412Z" fill="#00413D"/>
<defs>
<filter id="filter0_d_403_506" x="0" y="0" width="470" height="482" filterUnits="userSpaceOnUse" color-interpolation-filters="sRGB">
<feFlood flood-opacity="0" result="BackgroundImageFix"/>
<feColorMatrix in="SourceAlpha" type="matrix" values="0 0 0 0 0 0 0 0 0 0 0 0 0 0 0 0 0 0 127 0" result="hardAlpha"/>
<feOffset dy="20"/>
<feGaussianBlur stdDeviation="50"/>
<feComposite in2="hardAlpha" operator="out"/>
<feColorMatrix type="matrix" values="0 0 0 0 0 0 0 0 0 0.254902 0 0 0 0 0.239216 0 0 0 0.06 0"/>
<feBlend mode="normal" in2="BackgroundImageFix" result="effect1_dropShadow_403_506"/>
<feBlend mode="normal" in="SourceGraphic" in2="effect1_dropShadow_403_506" result="shape"/>
</filter>
<clipPath id="clip0_403_506">
<rect width="167" height="167" fill="white" transform="translate(152 110)"/>
</clipPath>
</defs>
</svg>
