<svg width="470" height="482" viewBox="0 0 470 482" fill="none" xmlns="http://www.w3.org/2000/svg">
<g filter="url(#filter0_d_403_518)">
<rect x="100" y="80" width="270" height="282" fill="white"/>
</g>
<g clip-path="url(#clip0_403_518)">
<g opacity="0.3">
<path d="M235.5 277C189.456 277 152 239.544 152 193.5C152 147.456 189.456 110 235.5 110C281.544 110 319 147.456 319 193.5C319 239.544 281.544 277 235.5 277ZM235.5 119.801C194.89 119.801 161.801 152.842 161.801 193.5C161.801 234.11 194.842 267.199 235.5 267.199C276.11 267.199 309.199 234.158 309.199 193.5C309.199 152.89 276.11 119.801 235.5 119.801Z" fill="#C4C4C4"/>
</g>
<path d="M180.383 254.439C179.122 254.439 177.909 253.954 176.938 253.032C160.879 237.215 152 216.061 152 193.5C152 147.456 189.456 110 235.5 110C238.217 110 240.4 112.183 240.4 114.9C240.4 117.617 238.217 119.801 235.5 119.801C194.89 119.801 161.801 152.842 161.801 193.5C161.801 213.393 169.612 232.072 183.828 246.045C185.769 247.938 185.769 251.043 183.877 252.983C182.906 253.954 181.645 254.439 180.383 254.439Z" fill="#E5745D"/>
</g>
<path d="M211.574 202C210.01 202 208.548 202.011 207.188 202.034C205.828 202.079 204.423 202.147 202.972 202.238C202.768 201.898 202.587 201.524 202.428 201.116C202.269 200.708 202.19 200.289 202.19 199.858L213.716 184.796C214.169 184.773 214.623 184.796 215.076 184.864C215.529 184.909 215.937 184.989 216.3 185.102V207.066C215.869 207.066 215.405 207.1 214.906 207.168C214.407 207.259 213.954 207.361 213.546 207.474C213.138 207.587 212.809 207.701 212.56 207.814C212.379 207.655 212.243 207.451 212.152 207.202C212.084 206.975 212.05 206.692 212.05 206.352V201.32V200.708V188.842H212.832L205.658 199.246L205.488 198.43L214.94 198.396H215.654H218.85C219.167 198.396 219.428 198.441 219.632 198.532C219.836 198.623 220.017 198.77 220.176 198.974C220.017 199.291 219.881 199.62 219.768 199.96C219.677 200.3 219.609 200.64 219.564 200.98C219.519 201.297 219.496 201.637 219.496 202H211.574ZM230.444 186.802C229.538 186.802 228.767 187.074 228.132 187.618C227.52 188.139 227.044 188.842 226.704 189.726C226.387 190.61 226.228 191.596 226.228 192.684C226.228 193.5 226.353 194.35 226.602 195.234C226.874 196.095 227.26 196.9 227.758 197.648C228.28 198.373 228.892 198.963 229.594 199.416C230.32 199.869 231.136 200.096 232.042 200.096C232.994 200.096 233.765 199.824 234.354 199.28C234.944 198.736 235.374 198.011 235.646 197.104C235.918 196.197 236.054 195.223 236.054 194.18C236.054 193.409 235.93 192.605 235.68 191.766C235.454 190.905 235.091 190.1 234.592 189.352C234.116 188.581 233.527 187.969 232.824 187.516C232.144 187.04 231.351 186.802 230.444 186.802ZM231.328 184.796C232.938 184.796 234.422 185.125 235.782 185.782C237.165 186.439 238.264 187.403 239.08 188.672C239.896 189.941 240.304 191.494 240.304 193.33C240.304 195.166 239.896 196.764 239.08 198.124C238.264 199.461 237.176 200.493 235.816 201.218C234.456 201.943 232.96 202.306 231.328 202.306C229.651 202.306 228.11 201.943 226.704 201.218C225.299 200.493 224.177 199.461 223.338 198.124C222.5 196.764 222.08 195.166 222.08 193.33C222.08 191.947 222.33 190.723 222.828 189.658C223.35 188.593 224.052 187.697 224.936 186.972C225.82 186.247 226.806 185.703 227.894 185.34C229.005 184.977 230.15 184.796 231.328 184.796ZM247.796 202.238C247.388 202.125 247.037 201.955 246.742 201.728C246.448 201.479 246.244 201.229 246.13 200.98L264.83 178.676C265.193 178.721 265.533 178.835 265.85 179.016C266.168 179.175 266.44 179.39 266.666 179.662L247.796 202.238ZM249.938 189.794C248.737 189.794 247.74 189.545 246.946 189.046C246.176 188.525 245.586 187.867 245.178 187.074C244.77 186.281 244.566 185.453 244.566 184.592C244.566 183.617 244.782 182.711 245.212 181.872C245.643 181.011 246.278 180.319 247.116 179.798C247.955 179.254 249.009 178.982 250.278 178.982C251.412 178.982 252.352 179.243 253.1 179.764C253.848 180.263 254.404 180.909 254.766 181.702C255.152 182.495 255.344 183.3 255.344 184.116C255.344 185.136 255.129 186.077 254.698 186.938C254.29 187.799 253.69 188.491 252.896 189.012C252.103 189.533 251.117 189.794 249.938 189.794ZM250.176 187.992C250.675 187.992 251.151 187.709 251.604 187.142C252.08 186.553 252.318 185.691 252.318 184.558C252.318 183.447 252.08 182.541 251.604 181.838C251.151 181.113 250.562 180.75 249.836 180.75C249.247 180.75 248.726 181.079 248.272 181.736C247.842 182.371 247.626 183.175 247.626 184.15C247.626 185.283 247.853 186.213 248.306 186.938C248.782 187.641 249.406 187.992 250.176 187.992ZM262.518 202.272C261.317 202.272 260.32 202.023 259.526 201.524C258.756 201.003 258.166 200.345 257.758 199.552C257.35 198.759 257.146 197.931 257.146 197.07C257.146 196.095 257.362 195.189 257.792 194.35C258.223 193.489 258.858 192.797 259.696 192.276C260.558 191.732 261.612 191.46 262.858 191.46C263.992 191.46 264.921 191.721 265.646 192.242C266.394 192.741 266.961 193.387 267.346 194.18C267.732 194.973 267.924 195.778 267.924 196.594C267.924 197.614 267.709 198.555 267.278 199.416C266.87 200.277 266.27 200.969 265.476 201.49C264.683 202.011 263.697 202.272 262.518 202.272ZM262.756 200.47C263.255 200.47 263.731 200.187 264.184 199.62C264.66 199.031 264.898 198.169 264.898 197.036C264.898 195.925 264.66 195.019 264.184 194.316C263.731 193.591 263.142 193.228 262.416 193.228C261.827 193.228 261.306 193.557 260.852 194.214C260.422 194.849 260.206 195.653 260.206 196.628C260.206 197.761 260.433 198.691 260.886 199.416C261.362 200.119 261.986 200.47 262.756 200.47Z" fill="#E5745D"/>
<path d="M127.52 308.346C127.728 308.363 127.979 308.381 128.274 308.398C128.586 308.398 128.907 308.407 129.236 308.424C129.565 308.424 129.877 308.424 130.172 308.424C130.467 308.424 130.718 308.424 130.926 308.424C131.203 308.424 131.55 308.424 131.966 308.424C132.399 308.407 132.841 308.398 133.292 308.398C133.76 308.381 134.159 308.363 134.488 308.346C134.488 308.554 134.479 308.779 134.462 309.022C134.445 309.265 134.401 309.507 134.332 309.75C133.76 309.802 133.344 309.897 133.084 310.036C132.824 310.175 132.711 310.435 132.746 310.816C132.781 311.197 132.928 311.778 133.188 312.558C133.5 313.477 133.821 314.473 134.15 315.548C134.497 316.605 134.835 317.697 135.164 318.824C135.493 319.933 135.814 321.008 136.126 322.048H135.346L140.052 308.372C140.243 308.303 140.459 308.259 140.702 308.242C140.962 308.225 141.231 308.216 141.508 308.216C142.097 309.707 142.678 311.232 143.25 312.792C143.839 314.335 144.411 315.886 144.966 317.446C145.538 318.989 146.084 320.505 146.604 321.996H145.928L148.58 313.468C148.979 312.168 149.074 311.258 148.866 310.738C148.675 310.201 148.155 309.871 147.306 309.75C147.219 309.542 147.159 309.308 147.124 309.048C147.107 308.788 147.098 308.554 147.098 308.346C147.462 308.363 147.887 308.381 148.372 308.398C148.875 308.415 149.36 308.424 149.828 308.424C150.227 308.424 150.669 308.415 151.154 308.398C151.639 308.381 152.055 308.363 152.402 308.346C152.402 308.571 152.385 308.805 152.35 309.048C152.333 309.291 152.281 309.525 152.194 309.75C151.899 309.837 151.639 310.001 151.414 310.244C151.206 310.469 150.998 310.842 150.79 311.362C150.582 311.865 150.331 312.584 150.036 313.52L146.136 326.052C145.963 326.104 145.72 326.147 145.408 326.182C145.096 326.217 144.81 326.234 144.55 326.234C144.03 324.761 143.493 323.279 142.938 321.788C142.383 320.28 141.82 318.772 141.248 317.264C140.693 315.756 140.121 314.274 139.532 312.818H140.052L135.554 326.078C135.415 326.113 135.242 326.139 135.034 326.156C134.843 326.191 134.653 326.208 134.462 326.208C134.271 326.225 134.089 326.234 133.916 326.234C133.223 323.929 132.521 321.649 131.81 319.396C131.117 317.125 130.423 314.959 129.73 312.896C129.401 311.943 129.141 311.258 128.95 310.842C128.759 310.409 128.569 310.131 128.378 310.01C128.205 309.889 127.971 309.811 127.676 309.776C127.607 309.568 127.563 309.343 127.546 309.1C127.529 308.84 127.52 308.589 127.52 308.346ZM157.809 326.234C156.439 326.234 155.313 325.965 154.429 325.428C153.562 324.873 152.912 324.128 152.479 323.192C152.063 322.256 151.855 321.225 151.855 320.098C151.855 318.902 152.089 317.836 152.557 316.9C153.025 315.964 153.692 315.227 154.559 314.69C155.425 314.135 156.448 313.858 157.627 313.858C158.823 313.858 159.793 314.101 160.539 314.586C161.284 315.054 161.839 315.704 162.203 316.536C162.584 317.368 162.801 318.304 162.853 319.344C162.749 319.777 162.567 320.141 162.307 320.436C161.925 320.436 161.423 320.436 160.799 320.436C160.192 320.436 159.525 320.445 158.797 320.462C158.069 320.462 157.323 320.479 156.561 320.514C155.815 320.549 155.105 320.583 154.429 320.618V319.058H159.629C159.629 317.897 159.447 316.987 159.083 316.328C158.719 315.652 158.19 315.314 157.497 315.314C157.081 315.314 156.691 315.453 156.327 315.73C155.98 315.99 155.694 316.423 155.469 317.03C155.261 317.619 155.157 318.425 155.157 319.448C155.157 320.332 155.261 321.155 155.469 321.918C155.694 322.681 156.075 323.296 156.613 323.764C157.15 324.232 157.895 324.466 158.849 324.466C159.438 324.466 160.019 324.353 160.591 324.128C161.163 323.885 161.657 323.556 162.073 323.14C162.229 323.227 162.376 323.383 162.515 323.608C162.653 323.833 162.723 324.05 162.723 324.258C162.099 324.951 161.379 325.454 160.565 325.766C159.767 326.078 158.849 326.234 157.809 326.234ZM168.756 323.582C169.068 323.963 169.406 324.267 169.77 324.492C170.152 324.717 170.611 324.83 171.148 324.83C171.495 324.83 171.859 324.761 172.24 324.622C172.639 324.483 173.012 324.241 173.358 323.894C173.722 323.547 174.017 323.053 174.242 322.412C174.468 321.771 174.58 320.947 174.58 319.942C174.58 319.006 174.45 318.235 174.19 317.628C173.93 317.021 173.601 316.562 173.202 316.25C172.804 315.938 172.388 315.782 171.954 315.782C171.486 315.782 171.027 315.938 170.576 316.25C170.143 316.545 169.779 317.03 169.484 317.706C169.207 318.382 169.068 319.292 169.068 320.436V324.388L168.756 323.582ZM171.096 326.234C170.247 326.234 169.441 326.156 168.678 326C167.933 325.844 167.274 325.627 166.702 325.35C166.13 325.073 165.662 324.761 165.298 324.414C165.506 324.171 165.654 323.825 165.74 323.374C165.844 322.923 165.896 322.256 165.896 321.372V311.362C165.896 310.946 165.853 310.608 165.766 310.348C165.68 310.088 165.498 309.889 165.22 309.75C164.943 309.611 164.518 309.533 163.946 309.516C163.946 309.273 163.964 309.048 163.998 308.84C164.033 308.615 164.102 308.415 164.206 308.242C164.674 308.242 165.186 308.199 165.74 308.112C166.312 308.025 166.841 307.913 167.326 307.774C167.812 307.635 168.167 307.497 168.392 307.358C168.583 307.427 168.739 307.557 168.86 307.748C168.999 307.939 169.068 308.225 169.068 308.606V314.638C169.068 315.054 169.051 315.392 169.016 315.652C168.982 315.895 168.938 316.146 168.886 316.406L168.704 318.486L168.158 317.706C168.418 317.082 168.652 316.605 168.86 316.276C169.068 315.929 169.259 315.669 169.432 315.496C169.606 315.253 169.857 315.011 170.186 314.768C170.533 314.508 170.94 314.291 171.408 314.118C171.876 313.945 172.379 313.858 172.916 313.858C173.939 313.858 174.823 314.057 175.568 314.456C176.314 314.837 176.894 315.444 177.31 316.276C177.726 317.091 177.934 318.157 177.934 319.474C177.934 320.757 177.648 321.909 177.076 322.932C176.504 323.937 175.707 324.743 174.684 325.35C173.662 325.939 172.466 326.234 171.096 326.234ZM185.352 326.078C185.352 325.783 185.36 325.523 185.378 325.298C185.395 325.055 185.438 324.847 185.508 324.674C185.976 324.639 186.331 324.553 186.574 324.414C186.834 324.258 187.016 323.998 187.12 323.634C187.224 323.253 187.276 322.707 187.276 321.996V312.22C187.276 311.561 187.224 311.067 187.12 310.738C187.033 310.409 186.86 310.175 186.6 310.036C186.34 309.88 185.976 309.785 185.508 309.75C185.456 309.577 185.412 309.36 185.378 309.1C185.36 308.823 185.352 308.571 185.352 308.346C185.681 308.363 186.088 308.381 186.574 308.398C187.059 308.398 187.562 308.407 188.082 308.424C188.619 308.424 189.122 308.424 189.59 308.424C190.04 308.424 190.508 308.415 190.994 308.398C191.496 308.381 192.008 308.372 192.528 308.372C193.481 308.372 194.426 308.441 195.362 308.58C196.298 308.701 197.173 308.935 197.988 309.282C198.82 309.611 199.556 310.097 200.198 310.738C200.839 311.362 201.342 312.168 201.706 313.156C202.07 314.127 202.252 315.331 202.252 316.77C202.252 318.174 202.078 319.379 201.732 320.384C201.385 321.389 200.926 322.23 200.354 322.906C199.782 323.582 199.14 324.128 198.43 324.544C197.719 324.96 197 325.272 196.272 325.48C195.544 325.688 194.85 325.827 194.192 325.896C193.533 325.965 192.97 326 192.502 326C192.016 326 191.436 326 190.76 326C190.084 326 189.39 326 188.68 326C187.969 326.017 187.31 326.026 186.704 326.026C186.114 326.043 185.664 326.061 185.352 326.078ZM192.866 324.57C193.628 324.57 194.356 324.466 195.05 324.258C195.76 324.05 196.393 323.677 196.948 323.14C197.502 322.603 197.936 321.857 198.248 320.904C198.577 319.933 198.742 318.694 198.742 317.186C198.742 315.782 198.56 314.603 198.196 313.65C197.832 312.679 197.346 311.908 196.74 311.336C196.133 310.747 195.44 310.322 194.66 310.062C193.88 309.802 193.074 309.672 192.242 309.672C191.895 309.672 191.522 309.707 191.124 309.776C190.742 309.845 190.482 309.932 190.344 310.036L190.604 309.204V321.97C190.604 322.663 190.664 323.201 190.786 323.582C190.907 323.946 191.132 324.206 191.462 324.362C191.791 324.501 192.259 324.57 192.866 324.57ZM210.088 326.234C208.719 326.234 207.592 325.965 206.708 325.428C205.841 324.873 205.191 324.128 204.758 323.192C204.342 322.256 204.134 321.225 204.134 320.098C204.134 318.902 204.368 317.836 204.836 316.9C205.304 315.964 205.971 315.227 206.838 314.69C207.705 314.135 208.727 313.858 209.906 313.858C211.102 313.858 212.073 314.101 212.818 314.586C213.563 315.054 214.118 315.704 214.482 316.536C214.863 317.368 215.08 318.304 215.132 319.344C215.028 319.777 214.846 320.141 214.586 320.436C214.205 320.436 213.702 320.436 213.078 320.436C212.471 320.436 211.804 320.445 211.076 320.462C210.348 320.462 209.603 320.479 208.84 320.514C208.095 320.549 207.384 320.583 206.708 320.618V319.058H211.908C211.908 317.897 211.726 316.987 211.362 316.328C210.998 315.652 210.469 315.314 209.776 315.314C209.36 315.314 208.97 315.453 208.606 315.73C208.259 315.99 207.973 316.423 207.748 317.03C207.54 317.619 207.436 318.425 207.436 319.448C207.436 320.332 207.54 321.155 207.748 321.918C207.973 322.681 208.355 323.296 208.892 323.764C209.429 324.232 210.175 324.466 211.128 324.466C211.717 324.466 212.298 324.353 212.87 324.128C213.442 323.885 213.936 323.556 214.352 323.14C214.508 323.227 214.655 323.383 214.794 323.608C214.933 323.833 215.002 324.05 215.002 324.258C214.378 324.951 213.659 325.454 212.844 325.766C212.047 326.078 211.128 326.234 210.088 326.234ZM222.108 326.234C221.935 325.801 221.701 325.263 221.406 324.622C221.129 323.963 220.817 323.261 220.47 322.516C220.141 321.753 219.812 321.008 219.482 320.28C219.153 319.552 218.85 318.902 218.572 318.33C218.312 317.758 218.113 317.325 217.974 317.03C217.749 316.597 217.558 316.276 217.402 316.068C217.246 315.843 217.09 315.687 216.934 315.6C216.796 315.513 216.605 315.453 216.362 315.418C216.293 315.193 216.241 314.976 216.206 314.768C216.172 314.543 216.154 314.291 216.154 314.014C216.536 314.031 217.004 314.049 217.558 314.066C218.113 314.083 218.702 314.092 219.326 314.092C219.742 314.092 220.167 314.092 220.6 314.092C221.051 314.075 221.476 314.066 221.874 314.066C222.273 314.049 222.611 314.031 222.888 314.014C222.888 314.257 222.862 314.499 222.81 314.742C222.776 314.985 222.732 315.201 222.68 315.392C221.918 315.461 221.467 315.609 221.328 315.834C221.19 316.042 221.276 316.484 221.588 317.16C221.744 317.472 221.918 317.871 222.108 318.356C222.316 318.841 222.542 319.379 222.784 319.968C223.027 320.557 223.261 321.155 223.486 321.762C223.729 322.351 223.946 322.923 224.136 323.478H223.59C224.024 322.386 224.414 321.407 224.76 320.54C225.107 319.673 225.445 318.841 225.774 318.044C226.173 317.091 226.286 316.432 226.112 316.068C225.956 315.687 225.566 315.47 224.942 315.418C224.856 315.21 224.786 314.985 224.734 314.742C224.682 314.482 224.656 314.239 224.656 314.014C225.003 314.031 225.393 314.049 225.826 314.066C226.26 314.083 226.693 314.092 227.126 314.092C227.577 314.092 228.028 314.083 228.478 314.066C228.929 314.049 229.319 314.031 229.648 314.014C229.648 314.274 229.631 314.534 229.596 314.794C229.562 315.037 229.492 315.245 229.388 315.418C229.111 315.487 228.868 315.609 228.66 315.782C228.452 315.938 228.253 316.181 228.062 316.51C227.872 316.839 227.655 317.299 227.412 317.888L223.876 325.948C223.651 326.052 223.374 326.13 223.044 326.182C222.732 326.234 222.42 326.251 222.108 326.234ZM236.596 326.234C235.226 326.234 234.1 325.965 233.216 325.428C232.349 324.873 231.699 324.128 231.266 323.192C230.85 322.256 230.642 321.225 230.642 320.098C230.642 318.902 230.876 317.836 231.344 316.9C231.812 315.964 232.479 315.227 233.346 314.69C234.212 314.135 235.235 313.858 236.414 313.858C237.61 313.858 238.58 314.101 239.326 314.586C240.071 315.054 240.626 315.704 240.99 316.536C241.371 317.368 241.588 318.304 241.64 319.344C241.536 319.777 241.354 320.141 241.094 320.436C240.712 320.436 240.21 320.436 239.586 320.436C238.979 320.436 238.312 320.445 237.584 320.462C236.856 320.462 236.11 320.479 235.348 320.514C234.602 320.549 233.892 320.583 233.216 320.618V319.058H238.416C238.416 317.897 238.234 316.987 237.87 316.328C237.506 315.652 236.977 315.314 236.284 315.314C235.868 315.314 235.478 315.453 235.114 315.73C234.767 315.99 234.481 316.423 234.256 317.03C234.048 317.619 233.944 318.425 233.944 319.448C233.944 320.332 234.048 321.155 234.256 321.918C234.481 322.681 234.862 323.296 235.4 323.764C235.937 324.232 236.682 324.466 237.636 324.466C238.225 324.466 238.806 324.353 239.378 324.128C239.95 323.885 240.444 323.556 240.86 323.14C241.016 323.227 241.163 323.383 241.302 323.608C241.44 323.833 241.51 324.05 241.51 324.258C240.886 324.951 240.166 325.454 239.352 325.766C238.554 326.078 237.636 326.234 236.596 326.234ZM243.41 326.078C243.41 325.818 243.418 325.567 243.436 325.324C243.453 325.081 243.496 324.865 243.566 324.674C244.259 324.657 244.727 324.492 244.97 324.18C245.212 323.868 245.334 323.279 245.334 322.412V311.258C245.334 310.877 245.282 310.565 245.178 310.322C245.091 310.062 244.909 309.871 244.632 309.75C244.354 309.611 243.938 309.533 243.384 309.516C243.384 309.273 243.401 309.048 243.436 308.84C243.47 308.615 243.54 308.415 243.644 308.242C244.112 308.242 244.623 308.199 245.178 308.112C245.75 308.025 246.278 307.913 246.764 307.774C247.249 307.635 247.604 307.497 247.83 307.358C248.02 307.427 248.176 307.557 248.298 307.748C248.436 307.939 248.506 308.225 248.506 308.606V322.412C248.506 323.279 248.618 323.868 248.844 324.18C249.086 324.492 249.502 324.657 250.092 324.674C250.161 324.865 250.204 325.09 250.222 325.35C250.239 325.61 250.248 325.853 250.248 326.078C249.988 326.061 249.667 326.043 249.286 326.026C248.922 326.026 248.523 326.017 248.09 326C247.674 326 247.258 326 246.842 326C246.426 326 246.001 326 245.568 326C245.134 326.017 244.727 326.026 244.346 326.026C243.982 326.043 243.67 326.061 243.41 326.078ZM258.209 326.234C256.927 326.234 255.817 325.983 254.881 325.48C253.945 324.977 253.226 324.267 252.723 323.348C252.238 322.429 251.995 321.355 251.995 320.124C251.995 318.841 252.264 317.732 252.801 316.796C253.356 315.86 254.11 315.141 255.063 314.638C256.017 314.118 257.091 313.858 258.287 313.858C259.639 313.858 260.775 314.118 261.693 314.638C262.629 315.158 263.34 315.877 263.825 316.796C264.311 317.715 264.553 318.772 264.553 319.968C264.553 321.216 264.285 322.308 263.747 323.244C263.227 324.18 262.491 324.917 261.537 325.454C260.601 325.974 259.492 326.234 258.209 326.234ZM258.521 324.752C259.405 324.752 260.073 324.353 260.523 323.556C260.974 322.741 261.199 321.71 261.199 320.462C261.199 319.37 261.052 318.443 260.757 317.68C260.463 316.9 260.073 316.311 259.587 315.912C259.102 315.513 258.573 315.314 258.001 315.314C257.1 315.314 256.433 315.704 255.999 316.484C255.566 317.264 255.349 318.243 255.349 319.422C255.349 320.497 255.479 321.441 255.739 322.256C255.999 323.053 256.363 323.669 256.831 324.102C257.299 324.535 257.863 324.752 258.521 324.752ZM266.213 332.37C266.213 332.058 266.221 331.789 266.239 331.564C266.273 331.339 266.317 331.139 266.369 330.966C266.837 330.931 267.201 330.845 267.461 330.706C267.721 330.567 267.894 330.325 267.981 329.978C268.085 329.631 268.137 329.137 268.137 328.496V318.018C268.137 317.55 268.093 317.177 268.007 316.9C267.937 316.623 267.764 316.415 267.487 316.276C267.227 316.137 266.811 316.051 266.239 316.016C266.239 315.773 266.256 315.548 266.291 315.34C266.325 315.115 266.395 314.915 266.499 314.742C267.279 314.707 268.059 314.603 268.839 314.43C269.636 314.257 270.243 314.066 270.659 313.858C270.849 313.927 271.005 314.066 271.127 314.274C271.265 314.465 271.335 314.759 271.335 315.158C271.335 315.47 271.283 315.791 271.179 316.12C271.075 316.449 270.936 316.865 270.763 317.368L271.335 317.888V328.054C271.335 328.799 271.413 329.371 271.569 329.77C271.725 330.186 271.985 330.472 272.349 330.628C272.73 330.801 273.215 330.914 273.805 330.966C273.874 331.139 273.917 331.347 273.935 331.59C273.952 331.833 273.961 332.093 273.961 332.37C273.683 332.353 273.337 332.335 272.921 332.318C272.522 332.318 272.089 332.309 271.621 332.292C271.17 332.292 270.711 332.292 270.243 332.292C269.532 332.292 268.787 332.292 268.007 332.292C267.244 332.309 266.646 332.335 266.213 332.37ZM273.311 326.234C272.895 326.234 272.513 326.199 272.167 326.13C271.82 326.061 271.439 325.965 271.023 325.844V323.582C271.335 323.963 271.673 324.267 272.037 324.492C272.401 324.717 272.86 324.83 273.415 324.83C273.744 324.83 274.099 324.761 274.481 324.622C274.879 324.483 275.261 324.241 275.625 323.894C275.989 323.547 276.283 323.053 276.509 322.412C276.734 321.771 276.847 320.947 276.847 319.942C276.847 319.127 276.743 318.417 276.535 317.81C276.327 317.186 276.023 316.692 275.625 316.328C275.243 315.964 274.775 315.782 274.221 315.782C273.753 315.782 273.293 315.938 272.843 316.25C272.409 316.545 272.045 317.03 271.751 317.706C271.473 318.382 271.335 319.283 271.335 320.41L270.399 317.706C270.659 317.082 270.893 316.605 271.101 316.276C271.326 315.929 271.517 315.669 271.673 315.496C271.863 315.253 272.123 315.011 272.453 314.768C272.799 314.508 273.198 314.291 273.649 314.118C274.117 313.945 274.628 313.858 275.183 313.858C276.188 313.858 277.063 314.057 277.809 314.456C278.554 314.837 279.135 315.427 279.551 316.224C279.967 317.021 280.175 318.044 280.175 319.292C280.175 320.627 279.889 321.823 279.317 322.88C278.745 323.92 277.947 324.743 276.925 325.35C275.902 325.939 274.697 326.234 273.311 326.234ZM281.98 326.078C281.98 325.801 281.989 325.549 282.006 325.324C282.041 325.081 282.093 324.865 282.162 324.674C282.856 324.639 283.315 324.475 283.54 324.18C283.783 323.868 283.904 323.279 283.904 322.412V318.148C283.904 317.628 283.861 317.221 283.774 316.926C283.705 316.631 283.532 316.415 283.254 316.276C282.994 316.137 282.57 316.051 281.98 316.016C281.98 315.791 281.998 315.574 282.032 315.366C282.084 315.141 282.162 314.933 282.266 314.742C282.7 314.725 283.176 314.673 283.696 314.586C284.234 314.499 284.736 314.395 285.204 314.274C285.69 314.135 286.062 313.997 286.322 313.858C286.513 313.91 286.669 314.04 286.79 314.248C286.929 314.439 286.998 314.725 286.998 315.106C286.998 315.401 286.972 315.73 286.92 316.094C286.868 316.441 286.773 316.987 286.634 317.732L286.426 317.758C286.704 317.013 286.912 316.501 287.05 316.224C287.206 315.929 287.336 315.721 287.44 315.6C287.77 315.201 288.246 314.82 288.87 314.456C289.512 314.075 290.248 313.884 291.08 313.884C291.86 313.884 292.562 314.057 293.186 314.404C293.81 314.733 294.278 315.262 294.59 315.99C294.729 316.285 294.798 316.623 294.798 317.004H294.694C294.92 316.415 295.171 315.973 295.448 315.678C295.778 315.279 296.246 314.907 296.852 314.56C297.459 314.196 298.17 314.014 298.984 314.014C299.747 314.014 300.423 314.161 301.012 314.456C301.602 314.733 302.061 315.193 302.39 315.834C302.737 316.458 302.91 317.299 302.91 318.356V321.996C302.91 322.741 302.954 323.305 303.04 323.686C303.127 324.05 303.274 324.301 303.482 324.44C303.708 324.561 303.994 324.639 304.34 324.674C304.41 324.865 304.453 325.081 304.47 325.324C304.505 325.549 304.522 325.801 304.522 326.078C304.106 326.043 303.621 326.017 303.066 326C302.529 326 301.983 326 301.428 326C301.047 326 300.64 326 300.206 326C299.79 326.017 299.383 326.026 298.984 326.026C298.603 326.043 298.265 326.061 297.97 326.078C297.97 325.766 297.979 325.506 297.996 325.298C298.031 325.073 298.074 324.865 298.126 324.674C298.542 324.639 298.863 324.553 299.088 324.414C299.331 324.275 299.504 324.024 299.608 323.66C299.712 323.279 299.764 322.75 299.764 322.074V319.032C299.764 317.871 299.574 317.082 299.192 316.666C298.811 316.25 298.308 316.042 297.684 316.042C297.234 316.042 296.8 316.198 296.384 316.51C295.968 316.805 295.63 317.264 295.37 317.888C295.11 318.512 294.98 319.309 294.98 320.28V322.36C294.98 323.244 295.102 323.842 295.344 324.154C295.587 324.466 296.02 324.639 296.644 324.674C296.714 324.847 296.757 325.055 296.774 325.298C296.809 325.541 296.826 325.801 296.826 326.078C296.393 326.043 295.864 326.017 295.24 326C294.634 326 294.036 326 293.446 326C292.874 326 292.276 326 291.652 326C291.046 326.017 290.508 326.043 290.04 326.078C290.04 325.801 290.049 325.541 290.066 325.298C290.101 325.055 290.144 324.847 290.196 324.674C290.63 324.639 290.968 324.553 291.21 324.414C291.453 324.275 291.618 324.024 291.704 323.66C291.808 323.279 291.86 322.724 291.86 321.996V318.85C291.86 317.741 291.67 316.987 291.288 316.588C290.907 316.172 290.387 315.964 289.728 315.964C289.295 315.964 288.87 316.12 288.454 316.432C288.056 316.744 287.726 317.212 287.466 317.836C287.206 318.46 287.076 319.249 287.076 320.202V322.36C287.076 323.244 287.189 323.842 287.414 324.154C287.64 324.466 288.073 324.639 288.714 324.674C288.784 324.865 288.827 325.081 288.844 325.324C288.862 325.549 288.87 325.801 288.87 326.078C288.593 326.061 288.246 326.043 287.83 326.026C287.414 326.026 286.99 326.017 286.556 326C286.14 326 285.759 326 285.412 326C285.066 326 284.676 326 284.242 326C283.809 326.017 283.393 326.026 282.994 326.026C282.596 326.043 282.258 326.061 281.98 326.078ZM312.057 326.234C310.687 326.234 309.561 325.965 308.677 325.428C307.81 324.873 307.16 324.128 306.727 323.192C306.311 322.256 306.103 321.225 306.103 320.098C306.103 318.902 306.337 317.836 306.805 316.9C307.273 315.964 307.94 315.227 308.807 314.69C309.673 314.135 310.696 313.858 311.875 313.858C313.071 313.858 314.041 314.101 314.787 314.586C315.532 315.054 316.087 315.704 316.451 316.536C316.832 317.368 317.049 318.304 317.101 319.344C316.997 319.777 316.815 320.141 316.555 320.436C316.173 320.436 315.671 320.436 315.047 320.436C314.44 320.436 313.773 320.445 313.045 320.462C312.317 320.462 311.571 320.479 310.809 320.514C310.063 320.549 309.353 320.583 308.677 320.618V319.058H313.877C313.877 317.897 313.695 316.987 313.331 316.328C312.967 315.652 312.438 315.314 311.745 315.314C311.329 315.314 310.939 315.453 310.575 315.73C310.228 315.99 309.942 316.423 309.717 317.03C309.509 317.619 309.405 318.425 309.405 319.448C309.405 320.332 309.509 321.155 309.717 321.918C309.942 322.681 310.323 323.296 310.861 323.764C311.398 324.232 312.143 324.466 313.097 324.466C313.686 324.466 314.267 324.353 314.839 324.128C315.411 323.885 315.905 323.556 316.321 323.14C316.477 323.227 316.624 323.383 316.763 323.608C316.901 323.833 316.971 324.05 316.971 324.258C316.347 324.951 315.627 325.454 314.813 325.766C314.015 326.078 313.097 326.234 312.057 326.234ZM320.898 320.514V318.018C320.898 317.55 320.855 317.177 320.768 316.9C320.699 316.623 320.526 316.415 320.248 316.276C319.988 316.137 319.572 316.051 319 316.016C319 315.773 319.018 315.548 319.052 315.34C319.087 315.115 319.156 314.915 319.26 314.742C320.04 314.707 320.82 314.603 321.6 314.43C322.398 314.257 323.004 314.066 323.42 313.858C323.611 313.927 323.767 314.066 323.888 314.274C324.027 314.465 324.096 314.759 324.096 315.158L320.898 320.514ZM332.104 322.412C332.104 323.296 332.217 323.894 332.442 324.206C332.668 324.518 333.023 324.674 333.508 324.674C333.595 324.865 333.647 325.073 333.664 325.298C333.682 325.506 333.69 325.766 333.69 326.078C333.309 326.043 332.841 326.017 332.286 326C331.732 326 331.177 326 330.622 326C330.258 326 329.851 326 329.4 326C328.967 326.017 328.551 326.026 328.152 326.026C327.754 326.043 327.416 326.061 327.138 326.078C327.138 325.801 327.147 325.549 327.164 325.324C327.199 325.081 327.251 324.865 327.32 324.674C327.858 324.674 328.256 324.509 328.516 324.18C328.794 323.833 328.932 323.209 328.932 322.308V319.058C328.932 317.897 328.733 317.108 328.334 316.692C327.953 316.259 327.433 316.042 326.774 316.042C326.341 316.042 325.916 316.198 325.5 316.51C325.084 316.805 324.746 317.264 324.486 317.888C324.226 318.512 324.096 319.309 324.096 320.28V322.412C324.096 323.279 324.218 323.877 324.46 324.206C324.703 324.518 325.119 324.674 325.708 324.674C325.778 324.882 325.821 325.099 325.838 325.324C325.856 325.532 325.864 325.783 325.864 326.078C325.622 326.061 325.31 326.043 324.928 326.026C324.547 326.026 324.14 326.017 323.706 326C323.29 326 322.883 326 322.484 326C322.12 326 321.713 326 321.262 326C320.812 326.017 320.378 326.026 319.962 326.026C319.564 326.043 319.234 326.061 318.974 326.078C318.974 325.783 318.983 325.515 319 325.272C319.035 325.029 319.087 324.83 319.156 324.674C319.832 324.674 320.292 324.518 320.534 324.206C320.777 323.877 320.898 323.279 320.898 322.412V318.018L324.096 315.158C324.096 315.366 324.079 315.609 324.044 315.886C324.01 316.146 323.949 316.423 323.862 316.718C323.949 316.545 324.027 316.371 324.096 316.198C324.183 316.025 324.304 315.86 324.46 315.704C324.79 315.305 325.266 314.924 325.89 314.56C326.532 314.179 327.286 313.988 328.152 313.988C328.846 313.988 329.496 314.127 330.102 314.404C330.709 314.681 331.194 315.132 331.558 315.756C331.922 316.363 332.104 317.186 332.104 318.226V322.412ZM340.135 326.234C338.991 326.234 338.133 325.939 337.561 325.35C337.007 324.761 336.729 323.79 336.729 322.438V316.12C336.469 316.016 336.192 315.938 335.897 315.886C335.62 315.834 335.265 315.799 334.831 315.782C334.831 315.505 334.849 315.262 334.883 315.054C334.935 314.829 335.013 314.595 335.117 314.352H336.729V311.05C337.215 310.963 337.691 310.816 338.159 310.608C338.645 310.383 339.043 310.14 339.355 309.88C339.581 309.967 339.728 310.097 339.797 310.27C339.867 310.443 339.901 310.816 339.901 311.388V314.352H343.177C343.177 314.612 343.16 314.863 343.125 315.106C343.091 315.349 343.03 315.583 342.943 315.808C342.337 315.808 341.782 315.843 341.279 315.912C340.794 315.981 340.335 316.068 339.901 316.172V321.97C339.901 322.611 339.953 323.123 340.057 323.504C340.179 323.885 340.343 324.154 340.551 324.31C340.759 324.466 341.019 324.544 341.331 324.544C341.643 324.544 341.929 324.501 342.189 324.414C342.467 324.327 342.727 324.206 342.969 324.05C343.212 324.345 343.342 324.717 343.359 325.168C343.047 325.463 342.579 325.714 341.955 325.922C341.349 326.13 340.742 326.234 340.135 326.234Z" fill="#00413D"/>
<defs>
<filter id="filter0_d_403_518" x="0" y="0" width="470" height="482" filterUnits="userSpaceOnUse" color-interpolation-filters="sRGB">
<feFlood flood-opacity="0" result="BackgroundImageFix"/>
<feColorMatrix in="SourceAlpha" type="matrix" values="0 0 0 0 0 0 0 0 0 0 0 0 0 0 0 0 0 0 127 0" result="hardAlpha"/>
<feOffset dy="20"/>
<feGaussianBlur stdDeviation="50"/>
<feComposite in2="hardAlpha" operator="out"/>
<feColorMatrix type="matrix" values="0 0 0 0 0 0 0 0 0 0.254902 0 0 0 0 0.239216 0 0 0 0.06 0"/>
<feBlend mode="normal" in2="BackgroundImageFix" result="effect1_dropShadow_403_518"/>
<feBlend mode="normal" in="SourceGraphic" in2="effect1_dropShadow_403_518" result="shape"/>
</filter>
<clipPath id="clip0_403_518">
<rect width="167" height="167" fill="white" transform="translate(152 110)"/>
</clipPath>
</defs>
</svg>
